<?xml version="1.0" encoding="utf-8"?>
<!-- Generator: Adobe Illustrator 25.2.3, SVG Export Plug-In . SVG Version: 6.00 Build 0)  -->
<svg version="1.1" id="icon_youtube_hover" xmlns="http://www.w3.org/2000/svg" xmlns:xlink="http://www.w3.org/1999/xlink" x="0px"
	 y="0px" viewBox="0 0 418 372" style="enable-background:new 0 0 418 372;" xml:space="preserve">
<style type="text/css">
	.st0{fill-rule:evenodd;clip-rule:evenodd;fill:#2284F5;stroke:#2284F5;stroke-width:0.5;}
	.st1{fill-rule:evenodd;clip-rule:evenodd;fill:#797979;}
	.st2{fill-rule:evenodd;clip-rule:evenodd;fill:#D9D9D9;}
	.st3{fill:#FFFFFF;}
	.st4{fill-rule:evenodd;clip-rule:evenodd;fill:url(#SVGID_1_);}
	.st5{fill-rule:evenodd;clip-rule:evenodd;fill:#DFDFDF;}
	.st6{fill:#FFFFFF;stroke:#EEEEEE;}
	.st7{fill-rule:evenodd;clip-rule:evenodd;fill:url(#SVGID_2_);}
	.st8{opacity:0.2;fill-rule:evenodd;clip-rule:evenodd;fill:#FFFFFF;enable-background:new    ;}
	.st9{fill-rule:evenodd;clip-rule:evenodd;fill:#565656;}
	.st10{fill-rule:evenodd;clip-rule:evenodd;fill:#0AEA8E;}
	.st11{fill:none;stroke:#FFFFFF;stroke-width:2.4;stroke-linecap:round;stroke-linejoin:round;}
	.st12{fill-rule:evenodd;clip-rule:evenodd;fill:#00C6FF;}
	.st13{fill:none;stroke:#FFFFFF;stroke-width:1.528;stroke-linecap:round;stroke-linejoin:round;}
	.st14{fill:none;stroke:#FFFFFF;stroke-width:2.318;stroke-linecap:round;stroke-linejoin:round;}
	.st15{fill:#797979;stroke:#797979;stroke-width:0.15;}
	.st16{fill-rule:evenodd;clip-rule:evenodd;fill:#949494;}
	.st17{fill:#949494;}
	.st18{opacity:0.6;fill-rule:evenodd;clip-rule:evenodd;fill:#FFFFFF;enable-background:new    ;}
	.st19{fill:#797979;}
	.st20{fill:#D9D9D9;}
	.st21{fill-rule:evenodd;clip-rule:evenodd;}
	.st22{fill-rule:evenodd;clip-rule:evenodd;fill:#FFFFFF;}
	.st23{fill:none;stroke:#FFFFFF;stroke-width:1.2;}
	.st24{fill-rule:evenodd;clip-rule:evenodd;fill:#FA615B;}
	.st25{font-family:'Arial-BoldMT';}
	.st26{font-size:11px;}
	.st27{fill:#DFDFDF;}
	.st28{fill:#2284F5;}
	.st29{fill:none;stroke:#FFFFFF;stroke-width:2.515;stroke-linecap:round;stroke-linejoin:round;}
	.st30{fill:none;stroke:#FFFFFF;stroke-width:2.515;stroke-linecap:round;stroke-linejoin:round;stroke-dasharray:4.7059,4.7059;}
	.st31{fill:none;stroke:#FFFFFF;stroke-width:2.515;stroke-linecap:round;stroke-linejoin:round;stroke-dasharray:5.0006,5.0006;}
	.st32{fill:none;stroke:#FFFFFF;stroke-width:2.515;stroke-linecap:round;stroke-linejoin:round;stroke-dasharray:4.9161,4.9161;}
	.st33{fill-rule:evenodd;clip-rule:evenodd;fill:#00C7FF;}
	.st34{fill:none;stroke:#FFFFFF;stroke-width:2.529;stroke-linecap:round;stroke-linejoin:round;}
	.st35{fill:none;stroke:#FFFFFF;stroke-width:2.381;stroke-linecap:round;stroke-linejoin:round;}
	.st36{fill-rule:evenodd;clip-rule:evenodd;fill:#DFDFDF;stroke:#DFDFDF;stroke-width:0.5;}
	.st37{fill:none;stroke:#FFFFFF;stroke-width:1.5;stroke-linecap:round;}
	.st38{fill:none;}
</style>
<path class="st0" d="M338,163.5l-5-5l0.5-0.5l4.5,4.6l4.5-4.6l0.5,0.5L338,163.5z"/>
<path class="st1" d="M406.2,195.9c0,1.8-1.5,3.3-3.3,3.3H398l-1.7,2.7c0,0,0,0-0.1,0.1c-0.1,0.2-0.3,0.3-0.5,0.3s-0.4-0.1-0.5-0.3
	l-0.1-0.1l-1.7-2.7h-4.9c-1.8,0-3.3-1.5-3.3-3.3v-7.8c0-1.8,1.5-3.3,3.3-3.3h14.1c1.8,0,3.3,1.5,3.3,3.3v7.8H406.2z M392.3,188.8
	v1.2c0,0,0.6,0,0.6,1v3h1.2v-3.3C394.1,190.7,394.2,188.8,392.3,188.8z M389.9,193c-0.4,0-0.8-0.3-0.8-0.8l0,0
	c0-0.4,0.4-0.8,0.8-0.8l0,0c0.4,0,0.8,0.4,0.8,0.8C390.7,192.6,390.3,193,389.9,193L389.9,193z M397.1,193.1c-0.4,0-0.8-0.3-0.8-0.8
	l0,0c0-0.4,0.4-0.8,0.8-0.8l0,0c0.4,0,0.8,0.4,0.8,0.8C397.9,192.7,397.5,193.1,397.1,193.1z M397.1,190.4c0,0-2.1,0-2.1,1.9
	c0,0-0.1,1.9,2.1,1.9c0,0,2.1,0,2.1-1.9C399.2,192.3,399.3,190.4,397.1,190.4z M390.1,190.2c0,0-0.6,0-1.1,0.5v-2h-1.3v5.1h1.3v-0.4
	c0,0,0.3,0.5,1.1,0.5c0,0,1.8-0.1,1.8-1.9C391.9,192.1,391.9,190.2,390.1,190.2z M402,193.1c-0.4,0-0.8-0.3-0.8-0.8l0,0
	c0-0.4,0.4-0.8,0.8-0.8s0.8,0.3,0.8,0.8l0,0C402.8,192.7,402.4,193.1,402,193.1L402,193.1z M402.7,190.9c0,0-0.4-0.5-1.1-0.5
	c0,0-1.8-0.1-1.8,1.9c0,0,0,1.8,1.7,1.8c0,0,0.7,0,1.1-0.5v0.3c0,0,0.1,0.9-0.8,0.9h-0.3v1.1h0.5c0,0,1.8,0,1.8-1.9v-3.5h-1.2
	C402.7,190.5,402.7,190.9,402.7,190.9z"/>
<path class="st2" d="M368.2,243.9c0,1.8-1.5,3.3-3.3,3.3H360l-1.7,2.7c0,0,0,0-0.1,0.1c-0.1,0.2-0.3,0.3-0.5,0.3s-0.4-0.1-0.5-0.3
	l-0.1-0.1l-1.7-2.7h-4.9c-1.8,0-3.3-1.5-3.3-3.3v-7.8c0-1.8,1.5-3.3,3.3-3.3h14.1c1.8,0,3.3,1.5,3.3,3.3v7.8H368.2z M354.3,236.8
	v1.2c0,0,0.6,0,0.6,1v3h1.2v-3.3C356.1,238.7,356.2,236.8,354.3,236.8 M351.9,241c-0.4,0-0.8-0.3-0.8-0.8l0,0c0-0.4,0.4-0.8,0.8-0.8
	l0,0c0.4,0,0.8,0.4,0.8,0.8C352.7,240.6,352.3,241,351.9,241L351.9,241 M359.1,241.1c-0.4,0-0.8-0.3-0.8-0.8l0,0
	c0-0.4,0.4-0.8,0.8-0.8l0,0c0.4,0,0.8,0.4,0.8,0.8C359.9,240.7,359.5,241.1,359.1,241.1 M359.1,238.4c0,0-2.1,0-2.1,1.9
	c0,0-0.1,1.9,2.1,1.9c0,0,2.1,0,2.1-1.9C361.2,240.3,361.3,238.4,359.1,238.4 M352.1,238.2c0,0-0.6,0-1.1,0.5v-2h-1.3v5.1h1.3v-0.4
	c0,0,0.3,0.5,1.1,0.5c0,0,1.8-0.1,1.8-1.9C353.9,240.1,353.9,238.2,352.1,238.2 M364,241.1c-0.4,0-0.8-0.3-0.8-0.8l0,0
	c0-0.4,0.4-0.8,0.8-0.8s0.8,0.3,0.8,0.8l0,0C364.8,240.7,364.4,241.1,364,241.1L364,241.1z M364.7,238.9c0,0-0.4-0.5-1.1-0.5
	c0,0-1.8-0.1-1.8,1.9c0,0,0,1.8,1.7,1.8c0,0,0.7,0,1.1-0.5v0.3c0,0,0.1,0.9-0.8,0.9h-0.3v1.1h0.5c0,0,1.8,0,1.8-1.9v-3.5h-1.2
	C364.7,238.5,364.7,238.9,364.7,238.9z"/>
<path class="st3" d="M17.5,75.5c6.3,0,10.3-3.4,11.6-8.2c0.1-0.2,0-0.4-0.3-0.5l-3.7-1.1c-0.3-0.1-0.5,0-0.6,0.3
	c-1.2,3.2-3.6,4.8-6.9,4.8c-4.9,0-7.8-3.4-7.8-8.7c0-5.2,2.9-8.7,7.8-8.7c2.9,0,5.1,1.3,6.3,3.6c0.1,0.2,0.3,0.3,0.6,0.3l3.7-1
	c0.3-0.1,0.4-0.3,0.3-0.6c-1.7-4.4-5.6-6.9-11-6.9C10.2,48.8,5,54.1,5,62.2S10,75.5,17.5,75.5z M33.3,75H50c0.3,0,0.5-0.2,0.5-0.5
	v-3.6c0-0.3-0.2-0.5-0.5-0.5H37.6V49.8c0-0.3-0.2-0.5-0.5-0.5h-3.8c-0.3,0-0.5,0.2-0.5,0.5v24.8C32.9,74.8,33.1,75,33.3,75z
	 M63.9,75.5c7.5,0,12.9-5.3,12.9-13.3s-5.5-13.3-12.9-13.3s-13,5.3-13,13.3S56.4,75.5,63.9,75.5z M63.9,70.9c-4.9,0-8-3.6-8-8.7
	s3.1-8.7,8-8.7s8.1,3.6,8.1,8.7S68.8,70.9,63.9,70.9z M87.9,75h3.3c0.2,0,0.4-0.1,0.5-0.3l10-24.8c0.1-0.3,0-0.5-0.3-0.5h-4.3
	c-0.2,0-0.5,0.1-0.5,0.3l-6.9,18.8l-7-18.8c-0.1-0.2-0.3-0.3-0.5-0.3h-4.4c-0.3,0-0.5,0.2-0.3,0.5l10,24.8
	C87.5,74.9,87.7,75,87.9,75z M99.4,75h4.3c0.2,0,0.4-0.1,0.5-0.3l1.8-4.8h10.7l1.8,4.8c0.1,0.2,0.3,0.3,0.5,0.3h4.4
	c0.3,0,0.5-0.2,0.3-0.5l-10.3-24.8c-0.1-0.2-0.3-0.3-0.5-0.3h-3.3c-0.2,0-0.4,0.1-0.5,0.3L99,74.5C98.9,74.8,99,75,99.4,75z
	 M107.7,65.5l3.7-9.7l3.7,9.7C115,65.5,107.7,65.5,107.7,65.5z M145.6,75.5c7.5,0,12.9-5.3,12.9-13.3s-5.5-13.3-12.9-13.3
	s-12.9,5.3-12.9,13.3S138.1,75.5,145.6,75.5z M145.6,70.9c-4.9,0-8.1-3.6-8.1-8.7s3.1-8.7,8.1-8.7s8.1,3.6,8.1,8.7
	S150.5,70.9,145.6,70.9z M163.8,75h3.6c0.3,0,0.5-0.2,0.5-0.5V60.9h7.5v13.6c0,0.3,0.2,0.5,0.5,0.5h3.6c0.3,0,0.5-0.2,0.5-0.5V60.9
	h7.5v13.6c0,0.3,0.2,0.5,0.5,0.5h3.6c0.3,0,0.5-0.2,0.5-0.5V57.3c0-0.3-0.2-0.5-0.5-0.5H180v-1.2c0-2,0.8-3,2.2-3
	c0.8,0,1.3,0.2,1.9,0.6c0.2,0.2,0.5,0.1,0.6-0.1l1.6-2.5c0.1-0.2,0.1-0.5-0.1-0.6c-1.2-1.1-2.6-1.6-4.4-1.6c-3.9,0-6.4,2.8-6.4,7.2
	v1.2h-7.5v-1.2c0-2,0.8-3,2.5-3c0.9,0,1.7,0.2,2.8,0.9c0.3,0.1,0.5,0.1,0.6-0.2l1.2-2.6c0.1-0.2,0.1-0.5-0.1-0.6
	c-1.4-1-2.9-1.6-4.8-1.6c-3.9,0-6.7,2.8-6.7,7.2v1.2h-2.7c-0.3,0-0.5,0.2-0.5,0.5v3.1c0,0.3,0.2,0.5,0.5,0.5h2.7v13.6
	C163.4,74.8,163.5,75,163.8,75z M189.7,54.2c1.5,0,2.7-1.1,2.7-2.6s-1.2-2.6-2.7-2.6s-2.7,1.1-2.7,2.6
	C187,53.2,188.2,54.2,189.7,54.2z M204.3,75.3c4,0,7.1-1.7,8.5-5.5c0.1-0.3,0-0.5-0.3-0.6l-3.3-0.8c-0.2-0.1-0.5,0-0.6,0.3
	c-0.8,1.6-2.2,2.4-4.1,2.4c-3.3,0-4.9-2.4-4.9-5.3s1.6-5.3,4.9-5.3c1.9,0,3.2,0.8,4,2.3c0.1,0.2,0.4,0.4,0.6,0.3l3-0.9
	c0.3-0.1,0.4-0.3,0.3-0.6c-1.3-3.6-4.2-5.2-8.2-5.2c-5.7,0-9.3,3.9-9.3,9.4C194.9,71.5,198.5,75.4,204.3,75.3z M217.7,53.7
	c1.5,0,2.7-1,2.7-2.5s-1.2-2.5-2.7-2.5s-2.7,1-2.7,2.5C215,52.6,216.2,53.7,217.7,53.7z M215.9,75h3.6c0.3,0,0.5-0.2,0.5-0.5V57.3
	c0-0.3-0.2-0.5-0.5-0.5h-3.6c-0.3,0-0.5,0.2-0.5,0.5v17.2C215.4,74.8,215.6,75,215.9,75z M231.3,75.3c2.5,0,4.6-1,5.9-2.8l0.1,2
	c0,0.3,0.2,0.5,0.5,0.5h3.3c0.3,0,0.5-0.2,0.5-0.5V57.3c0-0.3-0.2-0.5-0.5-0.5h-3.3c-0.3,0-0.5,0.1-0.5,0.5l-0.1,2
	c-1.3-1.8-3.4-2.8-5.9-2.8c-5.2,0-8.5,3.8-8.5,9.4S226.2,75.3,231.3,75.3z M232.5,71.2c-2.9,0-4.9-2.2-4.9-5.3c0-3.1,2-5.3,4.9-5.3
	s4.9,2.2,4.9,5.3C237.4,69.1,235.4,71.2,232.5,71.2z M246,75h3.6c0.3,0,0.5-0.2,0.5-0.5V49.2c0-0.3-0.2-0.5-0.5-0.5H246
	c-0.3,0-0.5,0.2-0.5,0.5v25.3C245.5,74.8,245.7,75,246,75z M261.8,75h9.2c6.9,0,9.9-2.8,9.9-7.3c0-2.9-1.6-5.2-4.8-6.1
	c2.3-0.9,3.5-3.1,3.5-5.6c0-3.8-2.8-6.6-8.9-6.6h-8.8c-0.3,0-0.5,0.2-0.5,0.5v24.8C261.4,74.8,261.5,75,261.8,75L261.8,75z
	 M270.5,53.7c2.7,0,4.3,1,4.3,3s-1.6,3-4.3,3h-4.4v-5.9C266.1,53.7,270.5,53.7,270.5,53.7z M271.1,63.9c3.1,0,4.8,1.2,4.8,3.3
	c0,2.2-1.7,3.4-4.8,3.4h-5V64C266.1,63.9,271.1,63.9,271.1,63.9z M284.6,75h3.6c0.3,0,0.5-0.2,0.5-0.5V49.2c0-0.3-0.2-0.5-0.5-0.5
	h-3.6c-0.3,0-0.5,0.2-0.5,0.5v25.3C284.1,74.8,284.3,75,284.6,75z M301.2,75.3c5.8,0,9.6-3.9,9.6-9.4s-3.8-9.4-9.6-9.4
	s-9.6,3.9-9.6,9.4S295.4,75.4,301.2,75.3z M301.2,71.2c-2.9,0-4.9-2.2-4.9-5.3c0-3.1,2-5.3,4.9-5.3s4.9,2.2,4.9,5.3
	C306.1,69.1,304.1,71.2,301.2,71.2z M321.7,83c5.7,0,9.6-3.2,9.6-9V57.3c0-0.3-0.2-0.5-0.5-0.5h-3.3c-0.3,0-0.5,0.1-0.5,0.5l-0.1,2
	c-1.3-1.8-3.4-2.8-5.9-2.8c-5.2,0-8.5,3.8-8.5,9.4s3.3,9.4,8.5,9.4c2.4,0,4.4-0.9,5.7-2.6v1.6c0,3.2-2.4,4.4-5.2,4.4
	c-2.5,0-3.9-1-4.7-2.5c-0.1-0.2-0.4-0.3-0.6-0.2l-2.9,1.1c-0.3,0.1-0.4,0.3-0.2,0.6C314.5,81.2,317.9,83,321.7,83L321.7,83z
	 M322.2,71.2c-2.9,0-4.9-2.2-4.9-5.3c0-3.1,2-5.3,4.9-5.3s4.9,2.2,4.9,5.3C327.1,69.1,325.1,71.2,322.2,71.2z"/>
<path class="st3" d="M153.3,28.1v3.3h-15.8V5.1h15.6v3.3H141v8.1h11.1v3.3H141v8.3C141,28.1,153.3,28.1,153.3,28.1z M173.2,19.9
	v11.5h-3.3V20.1c0-3.1-1.8-4.8-4.7-4.8c-3,0-5.5,1.8-5.5,6.2v10h-3.3V12.6h3.3v2.7c1.4-2.2,3.5-3.2,6.1-3.2
	C170.3,12.1,173.2,15.1,173.2,19.9L173.2,19.9z M196.1,12.6v18c0,5.9-4.7,8.8-9.6,8.8c-4.2,0-7.4-1.6-9-4.6l2.9-1.6
	c0.9,1.8,2.5,3.2,6.2,3.2c3.9,0,6.3-2.2,6.3-5.7V28c-0.8,1.2-1.8,2.2-3.1,2.8c-1.2,0.7-2.6,1-4.1,1c-5.4,0-9.6-4.3-9.6-9.8
	s4.3-9.8,9.6-9.8c3.2,0,5.6,1.4,7.1,3.7v-3.2L196.1,12.6L196.1,12.6z M192.9,21.9c0-1.8-0.8-3.4-2-4.6c-1.3-1.2-2.9-1.9-4.7-1.9
	s-3.4,0.7-4.7,1.9c-1.9,1.9-2.5,4.7-1.6,7.2c0.7,1.7,2,3,3.6,3.7c2.5,1.1,5.5,0.5,7.4-1.5C192.2,25.4,192.9,23.7,192.9,21.9
	L192.9,21.9z M199.8,7c0-0.6,0.2-1.1,0.6-1.6c0.9-0.9,2.3-0.9,3.1,0c0.9,0.9,0.9,2.2,0,3.1l0,0c-0.9,0.9-2.3,0.9-3.1,0
	C200,8.2,199.8,7.6,199.8,7L199.8,7z M200.4,12.6h3.3v18.8h-3.3V12.6L200.4,12.6z M224.7,19.9v11.5h-3.3V20.1c0-3.1-1.8-4.8-4.7-4.8
	c-3,0-5.5,1.8-5.5,6.2v10h-3.3V12.6h3.3v2.7c1.4-2.2,3.5-3.2,6.1-3.2C221.8,12.1,224.7,15.1,224.7,19.9z M237.6,28.8
	c2.6,0,4.5-1.2,5.4-2.7l2.8,1.6c-1.7,2.6-4.5,4.2-8.3,4.2c-6.1,0-10.1-4.2-10.1-9.9c0-5.6,4-9.9,9.9-9.9c5.7,0,9.4,4.7,9.4,9.9
	c0,0.5,0,1-0.1,1.5h-15.8C231.4,26.9,234.1,28.8,237.6,28.8L237.6,28.8z M230.8,20.7h12.6c-0.6-3.7-3.3-5.5-6.1-5.5
	C233.8,15.2,231.3,17.4,230.8,20.7z M259.1,28.8c2.6,0,4.5-1.2,5.4-2.7l2.8,1.6c-1.7,2.6-4.5,4.2-8.3,4.2c-6.1,0-10.1-4.2-10.1-9.9
	c0-5.6,4-9.9,9.9-9.9c5.7,0,9.4,4.7,9.4,9.9c0,0.5,0,1-0.1,1.5h-15.8C252.9,26.9,255.6,28.8,259.1,28.8L259.1,28.8z M252.2,20.7
	h12.6c-0.6-3.7-3.2-5.5-6.1-5.5C255.2,15.2,252.8,17.4,252.2,20.7L252.2,20.7z M280.4,12.3v3.4c-2.8-0.1-5.9,1.3-5.9,5.7v9.9h-3.3
	V12.6h3.3v3.2C275.7,13.2,278,12.3,280.4,12.3L280.4,12.3z M282.7,7c0-0.6,0.2-1.1,0.6-1.6c0.9-0.9,2.3-0.9,3.1,0
	c0.4,0.4,0.6,1,0.6,1.6s-0.2,1.1-0.6,1.6c-0.9,0.9-2.3,0.9-3.1,0C282.9,8.2,282.7,7.6,282.7,7L282.7,7z M283.3,12.6h3.3v18.8h-3.3
	V12.6L283.3,12.6z M307.1,19.9v11.5h-3.3V20.1c0-3.1-1.8-4.8-4.7-4.8c-3,0-5.5,1.8-5.5,6.2v10h-3.3V12.6h3.3v2.7
	c1.4-2.2,3.5-3.2,6.1-3.2C304.2,12.1,307.1,15.1,307.1,19.9z M330.1,12.6v18c0,5.9-4.7,8.8-9.6,8.8c-4.2,0-7.4-1.6-9-4.6l2.9-1.6
	c0.9,1.8,2.5,3.2,6.2,3.2c3.9,0,6.3-2.2,6.3-5.7V28c-0.8,1.2-1.8,2.2-3.1,2.8c-1.2,0.7-2.6,1-4.1,1c-5.4,0-9.6-4.3-9.6-9.8
	s4.3-9.8,9.6-9.8c3.2,0,5.6,1.4,7.1,3.7v-3.2C326.8,12.6,330.1,12.6,330.1,12.6z M326.8,21.9c0-1.7-0.8-3.4-2-4.6
	c-1.3-1.2-2.9-1.9-4.7-1.9c-1.8,0-3.4,0.7-4.7,1.9c-1.3,1.2-2,2.9-2,4.6c0,1.8,0.7,3.5,1.9,4.8c1.3,1.3,3,2,4.8,2
	c0.9,0,1.8-0.2,2.6-0.5c1.7-0.7,3-2,3.6-3.7C326.7,23.7,326.9,22.8,326.8,21.9z M362.2,24c0,4.2-3.4,7.4-7.7,7.4h-11.4V5.1h10.6
	c4.1,0,7.4,3.1,7.4,7.2c0,1.1-0.2,2.1-0.7,3.1s-1.2,1.8-2.1,2.4c1.2,0.5,2.2,1.4,2.9,2.5C361.9,21.4,362.3,22.7,362.2,24z
	 M346.7,8.4v8h7.1c1.1,0,2.1-0.4,2.8-1.2c0.7-0.8,1.1-1.8,1.1-2.8c0-1.1-0.4-2.1-1.1-2.8c-0.7-0.8-1.7-1.2-2.8-1.2H346.7L346.7,8.4z
	 M358.8,23.9c0-0.6-0.1-1.1-0.3-1.6c-0.4-1-1.2-1.9-2.3-2.3c-0.5-0.2-1.1-0.3-1.6-0.3h-7.9v8.5h7.9c1.1,0,2.2-0.5,3-1.3
	C358.4,26.1,358.8,25,358.8,23.9L358.8,23.9z M365.3,4h3.3v27.4h-3.3V4z M371.8,22c0-2,0.6-3.9,1.7-5.5s2.7-2.9,4.5-3.7
	s3.8-0.9,5.8-0.6c1.9,0.4,3.7,1.3,5.1,2.7s2.3,3.1,2.7,5.1c0.4,1.9,0.2,3.9-0.6,5.7c-0.8,1.8-2,3.4-3.7,4.4
	c-1.6,1.1-3.6,1.7-5.5,1.7c-1.3,0-2.6-0.2-3.8-0.7c-1.2-0.5-2.3-1.2-3.2-2.1c-0.9-0.9-1.7-2-2.2-3.2C372,24.6,371.8,23.3,371.8,22
	L371.8,22z M388.4,22c0-1.8-0.6-3.5-1.9-4.8c-2.6-2.6-6.9-2.7-9.5,0l0,0c-1.3,1.3-1.9,3-1.9,4.8s0.6,3.5,1.9,4.8
	c2.6,2.6,6.9,2.7,9.5,0.1c0,0,0,0,0.1-0.1c0.6-0.6,1.1-1.4,1.4-2.2C388.3,23.8,388.4,22.9,388.4,22z M414,12.6v18
	c0,5.9-4.7,8.8-9.6,8.8c-4.2,0-7.4-1.6-9-4.6l2.9-1.6c0.9,1.8,2.5,3.2,6.2,3.2c3.9,0,6.3-2.2,6.3-5.7V28c-0.8,1.2-1.8,2.2-3.1,2.8
	c-1.2,0.7-2.6,1-4.1,1c-5.4,0-9.6-4.3-9.6-9.8s4.3-9.8,9.6-9.8c3.2,0,5.6,1.4,7.1,3.7v-3.2C410.8,12.6,414,12.6,414,12.6z
	 M410.7,21.9c0-1.8-0.8-3.4-2-4.6c-1.3-1.2-2.9-1.9-4.7-1.9c-1.8,0-3.4,0.7-4.7,1.9c-1.3,1.2-2,2.9-2,4.6c0,1.8,0.7,3.5,1.9,4.8
	c0.6,0.6,1.4,1.1,2.2,1.5c2.5,1.1,5.5,0.5,7.4-1.5C410.1,25.4,410.8,23.7,410.7,21.9L410.7,21.9z M97.6,5.1L91.2,22L84.7,5.1h-6.5
	l10.1,26.3H94l10.1-26.3C104.2,5.1,97.6,5.1,97.6,5.1z M38.2,5.1h-6.1v26.3h16.3v-6H38.2V5.1z M116.9,5.1h-5.7l-10.1,26.3h6.5
	l1.7-4.6h9.6l1.7,4.6h6.5L116.9,5.1z M111.1,21.4l3-8.6l3,8.6H111.1z M73.9,8.6c-1.4-1.4-3-2.6-4.9-3.3C65.3,3.8,61.1,4,57.5,5.8
	c-1.8,0.9-3.4,2.1-4.6,3.7c-2.4,2.8-3.5,6.5-3.2,10.2c0.4,3.7,2.2,7.1,5,9.5c2.9,2.4,6.6,3.5,10.3,3.1c3.7-0.3,7.1-2.1,9.5-5
	l0.1-0.1c2.1-2.5,3.2-5.6,3.2-8.8s-1.1-6.3-3.2-8.8C74.4,9.2,74.2,8.9,73.9,8.6L73.9,8.6z M69.8,23.2L69.8,23.2
	c-0.1,0.2-0.2,0.3-0.3,0.3c-1.1,1.2-2.5,2-4.1,2.4s-3.2,0.2-4.7-0.4s-2.8-1.6-3.7-3c-1.8-2.8-1.7-6.4,0.2-9c1-1.3,2.3-2.3,3.8-2.8
	s3.2-0.5,4.8-0.1c1.6,0.5,2.9,1.4,4,2.6c1.2,1.4,1.8,3.1,1.8,4.9C71.6,20.1,71,21.8,69.8,23.2L69.8,23.2L69.8,23.2z M29,27.1
	l-4.8-3.9l-0.1,0.1L24,23.4l-0.1,0.1c-1.1,1.2-2.5,2-4,2.3c-1.5,0.4-3.2,0.2-4.6-0.3c-1.5-0.6-2.7-1.6-3.6-2.9
	c-0.9-1.3-1.4-2.8-1.4-4.4s0.5-3.1,1.4-4.4s2.2-2.3,3.6-2.9c1.5-0.6,3.1-0.7,4.6-0.3c1.7,0.4,3.2,1.3,4.3,2.7L29,9.4l-0.1-0.1
	c-1.9-2.2-4.3-3.8-7.1-4.5C18.9,4,16,4.2,13.3,5.1c-2.7,1-5.1,2.8-6.7,5.1c-3.4,4.8-3.4,11.2,0,16c1.7,2.4,4,4.1,6.7,5.1
	c2.7,1,5.7,1.1,8.5,0.4s5.3-2.3,7.1-4.5C28.8,27.3,29,27.1,29,27.1z"/>
<linearGradient id="SVGID_1_" gradientUnits="userSpaceOnUse" x1="19.75" y1="128" x2="19.75" y2="164.76" gradientTransform="matrix(1 0 0 1 234 55)">
	<stop  offset="0" style="stop-color:#05D686"/>
	<stop  offset="1" style="stop-color:#2284F5"/>
</linearGradient>
<path class="st4" d="M242.5,183H265c4.1,0,7.5,3.4,7.5,7.5V207c0,4.1-3.4,7.5-7.5,7.5h-19.5l-7.5,5.3h-3v-29.3
	C235,186.4,238.4,183,242.5,183z M268.2,210.2c0.8-0.8,1.3-2,1.3-3.2v-16.5c0-2.5-2-4.5-4.5-4.5h-22.5c-2.5,0-4.5,2-4.5,4.5v25.6
	l6.6-4.6H265C266.2,211.5,267.3,211,268.2,210.2z M249.4,195c0,0.9-0.7,1.7-1.7,1.7S246,196,246,195c0-0.9,0.7-1.6,1.6-1.6
	S249.4,194.1,249.4,195L249.4,195L249.4,195z M261.3,193.5v3h-3v-3H261.3z M253.8,203.3c-1.9,0-3.6-1.2-4.2-3h-3.1
	c0.8,4.1,4.8,6.7,8.8,5.9c3-0.6,5.3-2.9,5.9-5.9H258C257.4,202.1,255.7,203.3,253.8,203.3L253.8,203.3z"/>
<path class="st5" d="M194,181h24c4.4,0,8,3.6,8,8v17.6c0,4.4-3.6,8-8,8h-20.8l-8,5.6H186V189C186,184.6,189.6,181,194,181z
	 M221.4,210c0.9-0.9,1.4-2.1,1.4-3.4V189c0-2.6-2.2-4.8-4.8-4.8h-24c-2.6,0-4.8,2.2-4.8,4.8v27.3l7-4.9H218
	C219.3,211.4,220.5,210.9,221.4,210z M201.4,193.8c0,1-0.8,1.8-1.8,1.8s-1.8-0.8-1.8-1.8l0,0c0-1,0.8-1.8,1.8-1.8
	C200.6,192,201.4,192.8,201.4,193.8z M214,192.2v3.2h-3.2v-3.2H214z M206,202.6c-2,0-3.8-1.3-4.5-3.2h-3.3c0.9,4.3,5.1,7.1,9.4,6.2
	c3.1-0.6,5.6-3.1,6.2-6.2h-3.3C209.8,201.3,208,202.6,206,202.6z"/>
<path d="M223.9,125.2c1.6,0,3.1,0.9,3.8,2.2l1.4-0.8c-1-1.8-3-2.9-5.2-2.9c-1.8,0-3.3,0.6-4.5,1.8c-1.2,1.2-1.8,2.7-1.8,4.4
	s0.6,3.2,1.8,4.4s2.7,1.8,4.5,1.8c1.1,0,2.1-0.3,3-0.8s1.6-1.2,2.1-2.1l-1.4-0.8c-0.7,1.3-2.1,2.2-3.8,2.2c-1.4,0-2.5-0.4-3.4-1.3
	c-0.9-0.9-1.3-2-1.3-3.3s0.4-2.4,1.3-3.3C221.4,125.7,222.6,125.2,223.9,125.2z M235.1,127.1c-1.2,0-2.2,0.5-2.8,1.5v-4.7h-1.5v12
	h1.5v-4.5c0-1.9,1-2.8,2.5-2.8c1.3,0,2.1,0.8,2.1,2.2v5.2h1.5v-5.2C238.4,128.5,237,127.1,235.1,127.1z M251.7,125h-1.5v2.4h-1.7
	v1.4h1.7v4.6c0,2.1,1.2,2.8,3.8,2.5v-1.3c-1.5,0.1-2.3,0.2-2.3-1.1v-4.6h2.3v-1.4h-2.3V125L251.7,125z M260.7,127.1
	c-1.4,0-2.5,0.6-3.2,1.7v-4.9H256v12h1.5v-1.5c0.7,1.1,1.8,1.7,3.2,1.7c1.2,0,2.2-0.4,3.1-1.3c0.8-0.9,1.3-1.9,1.3-3.2
	c0-1.2-0.4-2.3-1.3-3.2C262.9,127.6,261.9,127.1,260.7,127.1z M262.7,133.8c-0.6,0.6-1.3,0.9-2.2,0.9c-0.9,0-1.6-0.3-2.2-0.9
	c-0.6-0.6-0.9-1.3-0.9-2.2s0.3-1.6,0.9-2.2c0.6-0.6,1.3-0.9,2.2-0.9c0.9,0,1.6,0.3,2.2,0.9c0.6,0.6,0.9,1.3,0.9,2.2
	S263.3,133.2,262.7,133.8L262.7,133.8z M270.6,127.1c-1.2,0-2.3,0.4-3.2,1.3c-0.9,0.9-1.3,1.9-1.3,3.2s0.4,2.3,1.3,3.2
	s1.9,1.3,3.2,1.3c1.2,0,2.3-0.4,3.2-1.3c0.9-0.9,1.3-1.9,1.3-3.2s-0.4-2.3-1.3-3.2C272.9,127.6,271.8,127.1,270.6,127.1L270.6,127.1
	z M272.7,133.8c-0.6,0.6-1.3,0.9-2.2,0.9c-0.8,0-1.6-0.3-2.1-0.9c-0.6-0.6-0.9-1.3-0.9-2.2s0.3-1.6,0.9-2.2c0.6-0.6,1.3-0.9,2.1-0.9
	c0.9,0,1.6,0.3,2.2,0.9c0.6,0.6,0.9,1.3,0.9,2.2S273.3,133.2,272.7,133.8L272.7,133.8z M281,127.3h-2.3V125h-1.5v2.4h-1.7v1.4h1.7
	v4.6c0,2.1,1.2,2.8,3.8,2.5v-1.3c-1.5,0.1-2.3,0.2-2.3-1.1v-4.6h2.3C281,128.8,281,127.3,281,127.3z M200.3,123.9l-2.9,7.7l-2.9-7.7
	h-2.9l4.6,12h2.6l4.6-12L200.3,123.9L200.3,123.9z M173.4,123.9h-2.7v12h7.4v-2.7h-4.6L173.4,123.9L173.4,123.9z M206.4,123.9
	l-4.6,12h2.9l0.8-2.1h4.4l0.8,2.1h2.9l-4.6-12L206.4,123.9L206.4,123.9z M206.4,131.3l1.4-3.9l1.4,3.9H206.4z M189.6,125.5
	c-1.2-1.3-2.9-2-4.6-2c-1.9,0-3.7,0.9-4.9,2.3c-0.9,1.1-1.4,2.6-1.4,4c0,1.5,0.5,2.9,1.4,4c1.2,1.5,3,2.3,4.9,2.3s3.7-0.8,4.9-2.3
	c0,0,0,0,0.1-0.1c0.9-1.1,1.4-2.6,1.4-4c0-1.5-0.5-2.9-1.4-4C189.8,125.8,189.7,125.6,189.6,125.5L189.6,125.5z M187.7,132.2
	L187.7,132.2c-0.7,0.8-1.7,1.3-2.7,1.3c-1.1,0-2.1-0.5-2.7-1.3c-0.5-0.6-0.8-1.4-0.8-2.2s0.3-1.6,0.8-2.2c0.7-0.8,1.7-1.3,2.7-1.3
	c0.9,0,1.8,0.3,2.4,1c0.1,0.1,0.2,0.2,0.3,0.4c0.5,0.6,0.8,1.4,0.8,2.2C188.5,130.7,188.2,131.5,187.7,132.2L187.7,132.2z
	 M167,132.2L167,132.2l-0.1,0.1c-0.7,0.7-1.6,1.2-2.6,1.2c-2,0-3.5-1.6-3.6-3.6c0-2,1.6-3.5,3.6-3.6c1,0,1.9,0.4,2.6,1.1
	c0,0,0.1,0.1,0.1,0.2l2.2-1.8v-0.1c-1.2-1.4-3-2.3-4.9-2.3c-3.5,0-6.4,2.9-6.4,6.4s2.9,6.4,6.4,6.4c1.9,0,3.7-0.8,4.9-2.3v-0.1
	L167,132.2L167,132.2z M243.8,127.2c-1.6,0-2.7,0.6-3.5,1.8l1.2,0.7c0.5-0.8,1.3-1.2,2.3-1.2c0.7,0,1.2,0.2,1.6,0.5
	c0.4,0.3,0.6,0.8,0.6,1.4v0.3h-0.6c-0.5,0-1.1,0-1.8,0.1c-0.6,0-1.2,0.2-1.8,0.4c-0.5,0.2-1,0.5-1.4,0.9s-0.6,1-0.6,1.7
	c0,0.4,0.1,0.8,0.3,1.1s0.4,0.6,0.7,0.8s0.7,0.4,1,0.5c0.4,0.1,0.8,0.2,1.3,0.2c0.7,0,1.3-0.1,1.8-0.4c0.5-0.3,0.9-0.6,1.2-1.1l0,0
	v1.3h1.4v-5.1c0-1.2-0.3-2.1-0.9-2.7C246.1,127.5,245.1,127.2,243.8,127.2z M246,132.3c0,0.3-0.1,0.7-0.2,1
	c-0.1,0.3-0.3,0.6-0.5,0.8s-0.5,0.4-0.8,0.6c-0.3,0.1-0.7,0.2-1.1,0.2c-0.6,0-1-0.1-1.4-0.3s-0.6-0.6-0.6-1.1c0-0.6,0.3-1,0.8-1.3
	c0.6-0.3,1.3-0.4,2.3-0.4h1.5V132.3L246,132.3z"/>
<path class="st6" d="M311.5,196c0,8-6.5,14.5-14.5,14.5s-14.5-6.5-14.5-14.5s6.5-14.5,14.5-14.5S311.5,188,311.5,196z"/>
<linearGradient id="SVGID_2_" gradientUnits="userSpaceOnUse" x1="15" y1="133.071" x2="15" y2="148.821" gradientTransform="matrix(1 0 0 1 282 55)">
	<stop  offset="0" style="stop-color:#05D686"/>
	<stop  offset="1" style="stop-color:#2284F5"/>
</linearGradient>
<path class="st7" d="M292.2,188.1h9.6c1.8,0,3.2,1.4,3.2,3.2v7.1c0,1.8-1.4,3.2-3.2,3.2h-8.4l-3.2,2.2H289v-12.5
	C289,189.5,290.4,188.1,292.2,188.1z M303.2,199.7c0.4-0.4,0.6-0.9,0.6-1.4v-7.1c0-1.1-0.9-1.9-1.9-1.9h-9.6c-1.1,0-1.9,0.9-1.9,1.9
	v11l2.8-2h8.8C302.3,200.3,302.8,200.1,303.2,199.7L303.2,199.7z M295.1,193.2c0,0.4-0.3,0.7-0.7,0.7c-0.4,0-0.7-0.3-0.7-0.7l0,0
	c0-0.4,0.3-0.7,0.7-0.7C294.8,192.5,295.1,192.8,295.1,193.2z M300.2,192.6v1.3h-1.3v-1.3H300.2L300.2,192.6z M297,196.8
	c-0.8,0-1.5-0.5-1.8-1.3h-1.3c0.4,1.7,2.1,2.9,3.8,2.5c1.3-0.3,2.2-1.2,2.5-2.5h-1.3C298.5,196.2,297.8,196.7,297,196.8z"/>
<path class="st8" d="M145.7,153c1.8,0,3.3,1.5,3.3,3.4v8c0,1.9-1.5,3.4-3.3,3.4h-4.9l-1.7,2.8c0,0,0,0-0.1,0.1
	c-0.1,0.2-0.3,0.3-0.5,0.3s-0.4-0.1-0.5-0.3c0,0,0-0.1-0.1-0.1l-1.7-2.8h-4.9c-1.8,0-3.3-1.5-3.3-3.4v-8c0-1.9,1.5-3.4,3.3-3.4
	H145.7z M144.4,158.6L144.4,158.6c-0.4,0-1.8,0.1-1.8,1.9c0,0,0,1.9,1.8,1.9l0,0c0.2,0,0.7,0,1.1-0.5v0.3c0,0.1,0,0.9-0.8,0.9h-0.3
	v1.1h0.5c0.1,0,1.9,0,1.9-2v-3.6h-1.2v0.4l0,0C145.2,158.8,144.8,158.6,144.4,158.6L144.4,158.6z M131.6,157.1h-1.3v5.3h1.3V162
	c0,0.1,0.4,0.5,1.1,0.5c0,0,1.8-0.1,1.8-2c0,0-0.1-1.9-1.8-1.9c0,0-0.6,0-1.1,0.5V157.1z M139.7,158.6c0,0-2.1,0-2.1,2
	c0,0-0.1,1.9,2.1,1.9c0,0,2.2,0,2.2-1.9v-0.1C141.9,160.2,141.8,158.6,139.7,158.6z M134.9,157v1.2l0,0c0.1,0,0.6,0.1,0.6,1.1v3.1
	h1.2V159C136.7,158.7,136.6,157,134.9,157z M132.4,159.8c0.5,0,0.8,0.4,0.8,0.8c0,0.4-0.4,0.8-0.8,0.8c-0.5,0-0.8-0.4-0.8-0.8l0,0
	C131.6,160.2,131.9,159.8,132.4,159.8z M139.7,159.8c0.5,0,0.8,0.4,0.8,0.8c0,0.4-0.4,0.8-0.8,0.8c-0.5,0-0.8-0.4-0.8-0.8l0,0
	C138.9,160.2,139.3,159.8,139.7,159.8z M144.7,159.8c0.5,0,0.8,0.4,0.8,0.8c0,0.4-0.4,0.8-0.8,0.8c-0.5,0-0.8-0.4-0.8-0.8l0,0
	C143.9,160.2,144.2,159.8,144.7,159.8z"/>
<path class="st8" d="M228,153h-16c-0.5,0-1,0.4-1,1l0,0v16c0,0.5,0.4,1,1,1h8.6v-7h-2.3v-2.7h2.3v-2c0-2.3,1.4-3.6,3.5-3.6
	c1,0,1.8,0.1,2.1,0.1v2.4h-1.4c-1.1,0-1.3,0.5-1.3,1.3v1.7h2.7l-0.4,2.7h-2.3v7h4.6c0.5,0,1-0.4,1-1l0,0v-16
	C229,153.4,228.6,153,228,153L228,153"/>
<path class="st9" d="M83.8,155c2.4,0,4.7,1.1,6.2,2.9c1.2,1.4,1.8,3.2,1.8,5.1c0,1.8-0.6,3.6-1.8,5.1l-0.1,0.1
	c-1.5,1.8-3.8,2.9-6.2,2.9c-2.8,0-5.5-1.5-6.9-3.9c-0.7-1.2-1.1-2.6-1.1-4.1c0-1.8,0.6-3.6,1.8-5.1C79.1,156.1,81.4,155,83.8,155z
	 M57.7,155c2.4,0,4.6,1,6.2,2.9L64,158l-2.8,2.2c-0.9-1-2.1-1.6-3.5-1.6c-2.5,0-4.5,2-4.5,4.5s2,4.5,4.5,4.5c1.3,0,2.5-0.5,3.3-1.5
	l0.1-0.1l0.1-0.1l0,0l2.8,2.2l-0.1,0.1c-1.5,1.8-3.8,2.9-6.2,2.9c-4.4,0-8-3.6-8-8S53.3,155,57.7,155z M95.8,155.5l3.7,9.6l3.7-9.6
	h3.7l-5.8,15h-3.3l-5.8-15C92,155.5,95.8,155.5,95.8,155.5z M69.2,155.5v11.6h5.9v3.5h-9.3v-15h3.4V155.5z M114.2,155.5l5.8,15h-3.7
	l-1-2.6h-5.5l-1,2.6h-3.7l5.8-15C110.9,155.5,114.2,155.5,114.2,155.5z M83.8,158.5c-2.5,0-4.5,2-4.5,4.5c0,1,0.4,2,1,2.8
	c0.9,1,2.1,1.6,3.5,1.6c1.3,0,2.5-0.5,3.3-1.5l0.1-0.1v-0.1c0.7-0.8,1-1.8,1-2.8s-0.4-2-1-2.8c-0.1-0.2-0.3-0.3-0.4-0.5
	C86,159,85,158.5,83.8,158.5z M6.8,159.2l2.6,3.8v-3.8h2.8v7.5H9.4L6.8,163v3.8H4v-7.5C4,159.2,6.8,159.2,6.8,159.2z M40.3,159.2
	c2,0,3.6,0.6,3.6,2.6c0,1.1-0.6,1.8-1.5,2.1l-0.2,0.1l2.3,2.8h-3.2l-1.7-2.3v2.3h-2.8v-7.5C36.8,159.2,40.3,159.2,40.3,159.2z
	 M35.7,159.2v2h-2.9v0.9h2.7v1.8h-2.7v0.9h3v2H30v-7.5L35.7,159.2L35.7,159.2z M18.9,159.2l2.9,7.5h-3.1l-0.3-1h-2.3l-0.3,1h-3.1
	l2.9-7.5H18.9L18.9,159.2z M23.5,159.2l1.4,4.5H25l1.4-4.5h3l-3.1,7.5h-2.6l-3.1-7.5C20.4,159.2,23.5,159.2,23.5,159.2z
	 M112.6,159.9l-1.7,4.9h3.4C114.3,164.8,112.6,159.9,112.6,159.9z M17.4,161.6L17.4,161.6l-0.7,2.5H18C18,164,17.4,161.6,17.4,161.6
	z M40.1,161.1h-0.6v1.5h0.6c0.3,0,0.6-0.1,0.7-0.2c0.2-0.1,0.2-0.3,0.2-0.5s-0.1-0.4-0.2-0.6C40.7,161.2,40.4,161.1,40.1,161.1
	L40.1,161.1z"/>
<path class="st8" d="M197.8,153c2.9,0,5.2,2.3,5.2,5.2l0,0v7.6c0,2.9-2.3,5.2-5.2,5.2l0,0h-7.6c-2.9,0-5.2-2.3-5.2-5.2l0,0v-7.6
	c0-2.9,2.3-5.2,5.2-5.2H197.8z M194,157.4c-2.6,0-4.7,2.1-4.7,4.7c0,2.6,2.1,4.7,4.7,4.7c2.6,0,4.7-2.1,4.7-4.7l0,0
	C198.7,159.5,196.6,157.4,194,157.4L194,157.4z M194,159c1.7,0,3,1.4,3,3s-1.4,3-3,3l0,0c-1.7,0-3-1.4-3-3S192.3,159,194,159z
	 M198.8,156.1c-0.6,0-1.1,0.5-1.1,1.1s0.5,1.1,1.1,1.1s1.1-0.5,1.1-1.1C199.9,156.6,199.4,156.1,198.8,156.1L198.8,156.1z"/>
<path class="st8" d="M174.3,155.3c1.3,0.2,2,0.8,2.4,2.3c0.1,0.5,0.3,3.3,0.3,4.3v0.2c0,1.1-0.2,3.8-0.3,4.3
	c-0.4,1.5-1.1,2.1-2.4,2.3c-0.8,0.1-4.4,0.3-7.3,0.3l0,0c-2.9,0-6.5-0.1-7.3-0.2c-1.3-0.2-2-0.8-2.4-2.3c-0.1-0.5-0.3-3.3-0.3-4.3
	V162c0-1.1,0.2-3.8,0.3-4.3c0.4-1.5,1.1-2.1,2.4-2.3c0.7-0.1,4.2-0.2,7-0.3h0.3C169.9,155,173.5,155.1,174.3,155.3z M165.5,159.5
	v5.1l4.8-2.6L165.5,159.5z"/>
<path class="st1" d="M371.8,184.9h-15.5c-0.5,0-1,0.4-1,1l0,0v15.5c0,0.5,0.4,1,1,1h8.3v-6.7h-2.3v-2.6h2.3V191
	c0-2.2,1.4-3.5,3.4-3.5c1,0,1.8,0.1,2,0.1v2.3h-1.4c-1.1,0-1.3,0.5-1.3,1.3v1.7h2.6l-0.3,2.6h-2.3v6.7h4.4c0.5,0,1-0.4,1-1v-15.5
	C372.8,185.3,372.4,184.9,371.8,184.9L371.8,184.9"/>
<path class="st2" d="M205.8,232.9h-15.5c-0.5,0-1,0.4-1,1l0,0v15.5c0,0.5,0.4,1,1,1h8.3v-6.7h-2.3v-2.6h2.3V239
	c0-2.2,1.4-3.5,3.4-3.5c1,0,1.8,0.1,2,0.1v2.3h-1.4c-1.1,0-1.3,0.5-1.3,1.3v1.7h2.6l-0.3,2.6h-2.3v6.7h4.4c0.5,0,1-0.4,1-1v-15.5
	C206.8,233.3,206.4,232.9,205.8,232.9L205.8,232.9"/>
<g>
	<path class="st10" d="M242.4,363.8H204c-4.4,0-8-3.6-8-8l8-66.7c0-4.4,3.6-8,8-8h22.4c4.4,0,8,3.6,8,8l8,66.7
		C250.4,360.2,246.8,363.8,242.4,363.8"/>
	<path class="st11" d="M210.4,311.1v5.6 M216.8,307.1v13.7 M223.2,301.5v24.9 M229.6,307.1v13.7 M236,311.1v5.6"/>
	<path class="st12" d="M260.4,363.7h-14c-3.1,0-5.6-2.5-5.6-5.6v-33.5c0-7,5.6-12.7,12.6-12.7s12.6,5.7,12.6,12.7v33.5
		C266,361.2,263.5,363.7,260.4,363.7"/>
</g>
<g>
	<path class="st12" d="M141.7,293.9c0,7.1-5.7,12.9-12.8,12.9c-7.1,0-12.8-5.8-12.8-12.9s5.7-12.9,12.8-12.9
		C135.9,281,141.7,286.8,141.7,293.9"/>
	<path class="st10" d="M154.4,296.5h-52.3c-4.5,0-8.1,3.6-8.1,8.1v11.7c0,2.5,2.7,4.2,4.9,3c1.9-1,4.1-1.5,6.3-1.4
		c6.2,0.3,11.3,5.4,11.5,11.6c0.3,7-5.2,12.8-12.1,12.8c-2,0-3.9-0.5-5.6-1.4c-2.3-1.2-5,0.4-5,2.9v12.7c0,4.5,3.6,8.1,8.1,8.1h52.3
		c4.5,0,8.1-3.6,8.1-8.1v-51.9C162.6,300.1,158.9,296.5,154.4,296.5"/>
	<path class="st11" d="M128.4,316.2V333 M128.7,342.6L128.7,342.6c-0.3,0-0.4-0.2-0.4-0.4l0,0c0-0.2,0.2-0.4,0.4-0.4l0,0
		c0.2,0,0.4,0.2,0.4,0.4l0,0C129.1,342.5,128.9,342.6,128.7,342.6z"/>
	<path class="st12" d="M177.7,330.1c0,7.1-5.7,12.9-12.8,12.9s-12.8-5.8-12.8-12.9s5.7-12.9,12.8-12.9S177.7,323,177.7,330.1"/>
</g>
<g>
	<path class="st10" d="M294.2,307.7v29.2c0,3.3,1.8,6.3,4.6,7.9l25.5,14.6c2.9,1.7,6.5,1.7,9.4,0l25.5-14.6c2.9-1.6,4.6-4.7,4.6-7.9
		v-29.2c0-3.3-1.8-6.3-4.6-7.9l-25.5-14.6c-2.9-1.7-6.5-1.7-9.4,0l-25.5,14.6C296,301.4,294.2,304.4,294.2,307.7"/>
	<path class="st13" d="M303.1,307l51.8,30.6 M354.9,307l-51.8,30.6"/>
	<path class="st12" d="M370,302.3c0,3.4-2.8,6.1-6.2,6.1c-3.4,0-6.2-2.7-6.2-6.1s2.8-6.1,6.2-6.1C367.2,296.2,370,298.9,370,302.3"
		/>
	<path class="st10" d="M370,342.2c0,3.4-2.8,6.1-6.2,6.1c-3.4,0-6.2-2.7-6.2-6.1s2.8-6.1,6.2-6.1S370,338.8,370,342.2"/>
	<path class="st12" d="M300.4,302.3c0,3.4-2.8,6.1-6.2,6.1c-3.4,0-6.2-2.7-6.2-6.1s2.8-6.1,6.2-6.1
		C297.7,296.2,300.4,298.9,300.4,302.3"/>
	<path class="st10" d="M300.4,342.2c0,3.4-2.8,6.1-6.2,6.1c-3.4,0-6.2-2.7-6.2-6.1s2.8-6.1,6.2-6.1
		C297.7,336.1,300.4,338.8,300.4,342.2 M335.2,284.1c0,3.4-2.8,6.1-6.2,6.1c-3.4,0-6.2-2.7-6.2-6.1s2.8-6.1,6.2-6.1
		C332.4,278,335.2,280.7,335.2,284.1"/>
	<path class="st13" d="M329,293.3v58.1"/>
	<path class="st12" d="M335.2,361.1c0,3.4-2.8,6.1-6.2,6.1c-3.4,0-6.2-2.7-6.2-6.1s2.8-6.1,6.2-6.1
		C332.4,355,335.2,357.7,335.2,361.1"/>
</g>
<g>
	<path class="st10" d="M82.9,215.9c0-17.7-14.1-32.1-31.8-32.9c-1.1-0.1-2.2-0.1-3.2,0C30.1,183.8,16,198.3,16,215.9
		c0,11.1,5.6,20.9,14.2,26.9c2,1.4,3.2,3.5,3.2,5.9v11.6c0,3.9,3.2,7.1,7.3,7.1h17.7c4,0,7.3-3.2,7.3-7.1v-11.6
		c0-2.4,1.2-4.5,3.2-5.9C77.3,236.9,82.9,227,82.9,215.9"/>
	<path class="st14" d="M49.4,208.6c9.8,0,17.8,3.4,17.8,7.7c0,4.2-8,7.7-17.8,7.7s-17.8-3.4-17.8-7.7
		C31.7,212.1,39.6,208.6,49.4,208.6z"/>
	<path class="st14" d="M49.4,218.4c9.8,0,17.8,3.4,17.8,7.7c0,4.2-8,7.7-17.8,7.7s-17.8-3.4-17.8-7.7
		C31.7,221.9,39.6,218.4,49.4,218.4z M49.4,198.8c9.8,0,17.8,3.4,17.8,7.7c0,4.2-8,7.7-17.8,7.7s-17.8-3.4-17.8-7.7
		C31.7,202.2,39.6,198.8,49.4,198.8z"/>
	<path class="st12" d="M67.4,251.8H31.1c-1.5,0-2.7-1.2-2.7-2.7s1.2-2.7,2.7-2.7h36.3c1.5,0,2.7,1.2,2.7,2.7S68.9,251.8,67.4,251.8
		 M67.4,261.7H31.1c-1.5,0-2.7-1.2-2.7-2.7s1.2-2.7,2.7-2.7h36.3c1.5,0,2.7,1.2,2.7,2.7S68.9,261.7,67.4,261.7"/>
</g>
<path class="st15" d="M387.2,95.4h-1.7c-0.1,0-0.2,0-0.3,0.1c-0.1,0.1-0.1,0.2-0.1,0.3v9.1c0,0.1,0,0.2,0.1,0.3
	c0.1,0.1,0.2,0.1,0.3,0.1h1.7c0.1,0,0.2,0,0.3-0.1v-0.1c0,0,0-0.1,0-0.2v-9.1c0-0.1,0-0.1,0-0.2v-0.1
	C387.4,95.4,387.3,95.4,387.2,95.4z M383.2,103h-4v-7.3v-0.1c0,0,0-0.1-0.1-0.1H379h-2h-0.1l-0.1,0.1c0,0,0,0.1,0,0.2v9.2
	c0,0.1,0,0.2,0.1,0.3c0.1,0.1,0.2,0.1,0.3,0.1h6c0.1,0,0.1,0,0.2,0l0.1-0.1c0-0.1,0.1-0.2,0-0.3v-1.5c0-0.1,0-0.2,0-0.3l-0.1-0.1
	C383.3,103,383.3,103,383.2,103L383.2,103z M406,97.7h0.1c0,0,0.1,0,0.1-0.1c0,0,0-0.1,0.1-0.1v-0.1v-1.6c0-0.1,0-0.2-0.1-0.3
	c-0.1,0-0.2-0.1-0.3-0.1H400c-0.1,0-0.2,0-0.3,0.1c-0.1,0.1-0.1,0.2-0.1,0.3v9.2c0,0.1,0,0.2,0.1,0.3c0.1,0.1,0.2,0.1,0.3,0.1h5.9
	c0.1,0,0.2,0,0.3-0.1c0.1-0.1,0.1-0.2,0.1-0.3v-1.5c0-0.1,0-0.1,0-0.1v-0.1l-0.1-0.1h-0.1h-4v-1.7h4c0.1,0,0.2,0,0.3-0.1v-0.1
	c0,0,0-0.1,0-0.2v-1.3c0-0.1,0-0.1,0-0.1s0-0.1-0.1-0.1h-0.1h-0.1h-4v-1.7h3.9V97.7z M395.7,105.4h1.7c0.1,0,0.2,0,0.3-0.1
	c0.1-0.1,0.1-0.2,0.1-0.3v-9.1c0-0.1,0-0.2-0.1-0.3c-0.1-0.1-0.2-0.1-0.3-0.1h-1.6c-0.1,0-0.2,0-0.3,0.1c-0.1,0.1-0.1,0.2-0.1,0.3
	v5.1l-3.7-5.2l0,0c0,0,0,0,0-0.1c0,0,0-0.1-0.1-0.1s-0.1-0.1-0.2-0.1h-1.7c-0.1,0-0.2,0-0.3,0.1c-0.1,0.1-0.1,0.2-0.1,0.3v9.2
	c0,0.1,0,0.2,0.1,0.3c0.1,0.1,0.2,0.1,0.3,0.1h1.6c0.1,0,0.2,0,0.3-0.1c0.1-0.1,0.1-0.2,0.1-0.3v-5.3l3.8,5.4c0,0,0,0.1,0.1,0.1
	L395.7,105.4C395.6,105.3,395.7,105.4,395.7,105.4L395.7,105.4z"/>
<path class="st1" d="M119.1,106.7L119.1,106.7c-0.1,0.1-0.2,0.2-0.2,0.3c-1.2,1.3-2.8,2-4.5,2c-1.8,0-3.6-0.8-4.7-2.2
	c-0.9-1.1-1.4-2.4-1.4-3.8s0.5-2.8,1.4-3.8c1.2-1.4,2.9-2.2,4.7-2.2c1.5,0,3,0.6,4.2,1.6c0.2,0.2,0.4,0.4,0.6,0.6
	c0.9,1.1,1.4,2.4,1.4,3.8C120.5,104.3,120,105.6,119.1,106.7L119.1,106.7z M122.3,95.4c-2.1-2.2-4.9-3.4-7.9-3.4
	c-3.3,0-6.4,1.5-8.5,4c-1.6,1.9-2.5,4.4-2.5,6.9s0.9,4.9,2.5,6.9c2.1,2.5,5.2,4,8.5,4s6.3-1.4,8.4-3.9l0.1-0.1
	c1.6-1.9,2.5-4.4,2.5-6.9s-0.9-4.9-2.5-6.9C122.7,95.8,122.5,95.6,122.3,95.4z M130.7,92.7L130.7,92.7L130.7,92.7h-5.1l7.9,20.5h4.5
	l0,0l0,0l7.9-20.4l0,0l0,0h-5.1l-5.1,13.1L130.7,92.7L130.7,92.7z M54.6,102.4c0.4,0,0.8-0.1,1-0.3s0.3-0.4,0.3-0.7
	c0-0.3-0.1-0.6-0.3-0.8c-0.2-0.2-0.7-0.3-1-0.3h-0.8v2C53.7,102.4,54.6,102.4,54.6,102.4z M59.7,101.2c0,1.6-0.9,2.5-2.2,2.9
	l3.1,3.8h-4.4l-2.3-3.2v3.2H50V97.8h4.8C57.6,97.8,59.7,98.6,59.7,101.2L59.7,101.2z M12.2,103v-5H16v10h-3.8l-3.5-5v5H5V98h3.8
	L12.2,103z M40.7,97.8h7.8v2.7h-4v1.2h3.7v2.5h-3.7v1.2h4.1v2.7h-7.9C40.7,108.1,40.7,97.8,40.7,97.8z M23.2,101.2l-0.9,3.4h1.9
	l-0.9-3.4H23.2z M21,98h4.4l4,10.2h-4.3l-0.4-1.3h-3.2l-0.4,1.3H17L21,98L21,98z M35.7,97.8l-1.9,6.2h-0.1l-1.9-6.2h-4.2L32,108h3.6
	l4.3-10.2H35.7L35.7,97.8z M94.4,92.7h-4.7v20.4h12.8v-4.7h-8L94.4,92.7L94.4,92.7z M153.6,98.6l-2.3,6.7h4.7L153.6,98.6L153.6,98.6
	z M158.7,113.1L158.7,113.1h5.1l-7.9-20.5h-4.5l-7.9,20.5h5.1l0,0l0,0l1.3-3.6h7.5L158.7,113.1L158.7,113.1z M83.4,106.7l3.8,3
	l-0.1,0.1c-2.1,2.5-5.2,3.9-8.4,3.9c-6.1,0-11-4.9-11-10.9s4.9-10.9,11-10.9c3.3,0,6.3,1.4,8.4,3.9l0.1,0.1L83.4,99
	c-1.2-1.4-2.9-2.2-4.7-2.2c-3.4,0-6.1,2.7-6.1,6.1s2.8,6.1,6.1,6.1c1.7,0,3.4-0.7,4.5-2l0.1-0.1L83.4,106.7L83.4,106.7L83.4,106.7z"
	/>
<path class="st1" d="M347.4,53v4.4l-3.1-4.4H341v8.8h3.3v-4.4l3.1,4.4h3.3V53H347.4z M385.5,56.8c-0.2,0.2-0.6,0.2-0.9,0.2h-0.7
	v-1.8h0.7c0.3,0,0.7,0.1,0.9,0.2c0.2,0.2,0.3,0.4,0.3,0.7S385.7,56.6,385.5,56.8L385.5,56.8z M387.2,58.6c1.2-0.3,2-1.2,2-2.6
	c0-2.3-1.8-3.1-4.3-3.1h-4.2v9h3.4v-2.8l2,2.8h3.9L387.2,58.6z M372.5,53h6.8v2.3h-3.5v1.1h3.2v2.2h-3.2v1h3.6V62h-6.9V53L372.5,53z
	 M356.4,58.7l0.8-3h0.1l0.8,3H356.4L356.4,58.7z M359.2,53h-3.8l-3.5,9h3.7l0.3-1.2h2.8L359,62h3.7L359.2,53L359.2,53z M368.1,53
	l-1.7,5.4h-0.1l-1.7-5.4H361l3.8,9h3.2l3.8-9H368.1z"/>
<path class="st16" d="M311,131.9c2.1,0,3.9-1.7,3.9-3.9c0-2.1-1.7-3.9-3.9-3.9s-3.9,1.7-3.9,3.9C307.1,130.1,308.9,131.9,311,131.9z
	 M315.5,128c0,2.5-2,4.5-4.5,4.5s-4.5-2-4.5-4.5s2-4.5,4.5-4.5S315.5,125.5,315.5,128z"/>
<path class="st17" d="M311,126.6c0.3,0,0.5-0.2,0.5-0.5s-0.2-0.5-0.5-0.5l0,0c-0.3,0-0.5,0.2-0.5,0.5
	C310.6,126.3,310.8,126.5,311,126.6z M311.3,127.2h-0.6v2.9h0.6V127.2L311.3,127.2z"/>
<path class="st18" d="M392,278c5.5,0,10,4.5,10,10s-4.5,10-10,10s-10-4.5-10-10S386.5,278,392,278z M392,291c-0.6,0-1,0.4-1,1
	s0.4,1,1,1s1-0.4,1-1S392.6,291,392,291z M392,282c-0.6,0-1,0.4-1,1v6c0,0.6,0.4,1,1,1s1-0.4,1-1v-6C393,282.4,392.6,282,392,282z"
	/>
<path class="st1" d="M293.8,245.1c-1.8,0-3.3-1.5-3.3-3.3s1.5-3.3,3.3-3.3s3.4,1.4,3.4,3.2s-1.4,3.4-3.2,3.4
	C294,245.1,293.9,245.1,293.8,245.1z M293.9,236.9c-2.6,0-4.8,2.1-4.8,4.8l0,0c0,2.6,2.1,4.8,4.8,4.8s4.8-2.1,4.8-4.8
	C298.7,239,296.5,236.9,293.9,236.9z M298.8,235.6c-0.6,0-1.1,0.5-1.1,1.1s0.5,1.1,1.1,1.1l0,0c0.6,0,1.1-0.5,1.1-1.1
	S299.4,235.6,298.8,235.6z"/>
<path class="st19" d="M298,230.5h-8.1v3h8.1V230.5L298,230.5z M289.9,230.5c-3.9,0-7,3.1-7,7l0,0h3c0-2.2,1.8-4.1,4.1-4.1l0,0
	C289.9,233.5,289.9,230.5,289.9,230.5z M282.8,237.5v8.1h3v-8.1H282.8L282.8,237.5z M282.8,245.7c0,3.9,3.1,7,7,7l0,0v-3
	c-2.2,0-4.1-1.8-4.1-4.1L282.8,245.7L282.8,245.7z M289.9,252.7h8.1v-3h-8.1V252.7L289.9,252.7z M298,252.7c3.9,0,7-3.1,7-7l0,0h-3
	c0,2.2-1.8,4.1-4.1,4.1l0,0L298,252.7L298,252.7z M305,245.7v-8.1h-3v8.1H305L305,245.7z M305,237.5c0-3.9-3.1-7-7-7l0,0v3
	c2.2,0,4.1,1.8,4.1,4.1l0,0h2.9V237.5z"/>
<path class="st2" d="M325.8,245.1c-1.8,0-3.3-1.5-3.3-3.3s1.5-3.3,3.3-3.3s3.4,1.4,3.4,3.2s-1.4,3.4-3.2,3.4
	C326,245.1,325.9,245.1,325.8,245.1 M325.9,236.9c-2.6,0-4.8,2.1-4.8,4.8l0,0c0,2.6,2.1,4.8,4.8,4.8s4.8-2.1,4.8-4.8
	C330.7,239,328.5,236.9,325.9,236.9 M330.8,235.6c-0.6,0-1.1,0.5-1.1,1.1s0.5,1.1,1.1,1.1l0,0c0.6,0,1.1-0.5,1.1-1.1
	S331.4,235.6,330.8,235.6"/>
<path class="st20" d="M330,230.5h-8.1v3h8.1V230.5L330,230.5z M321.9,230.5c-3.9,0-7,3.1-7,7l0,0h3c0-2.2,1.8-4.1,4.1-4.1l0,0
	C321.9,233.5,321.9,230.5,321.9,230.5z M314.8,237.5v8.1h3v-8.1H314.8L314.8,237.5z M314.8,245.7c0,3.9,3.1,7,7,7l0,0v-3
	c-2.2,0-4.1-1.8-4.1-4.1L314.8,245.7L314.8,245.7z M321.9,252.7h8.1v-3h-8.1V252.7L321.9,252.7z M330,252.7c3.9,0,7-3.1,7-7l0,0h-3
	c0,2.2-1.8,4.1-4.1,4.1l0,0L330,252.7L330,252.7z M337,245.7v-8.1h-3v8.1H337L337,245.7z M337,237.5c0-3.9-3.1-7-7-7l0,0v3
	c2.2,0,4.1,1.8,4.1,4.1l0,0h2.9V237.5z"/>
<path class="st21" d="M271.8,92c3,0,5.9,1.3,7.8,3.7c1.5,1.8,2.3,4,2.3,6.3s-0.8,4.5-2.3,6.3l-0.1,0.1c-1.9,2.3-4.7,3.6-7.7,3.6
	c-3.6,0-6.8-1.9-8.6-4.9c-0.9-1.5-1.4-3.3-1.4-5.1c0-2.3,0.8-4.5,2.3-6.3C265.9,93.3,268.8,92,271.8,92L271.8,92z M239.2,92
	c3,0,5.8,1.3,7.7,3.6l0.1,0.1l-3.4,2.8c-1.1-1.3-2.7-2-4.3-2.1c-3.1,0-5.6,2.5-5.6,5.6s2.5,5.6,5.6,5.6c1.6,0,3.1-0.7,4.1-1.8
	l0.1-0.1l0.1-0.1v-0.1l3.4,2.8l-0.1,0.1c-1.9,2.3-4.7,3.6-7.7,3.6c-5.5,0-10-4.5-10-10S233.6,92,239.2,92z M286.7,92.6l4.6,12
	l4.6-12h4.6l-7.2,18.8h-4.1L282,92.6L286.7,92.6L286.7,92.6z M253.5,92.6v14.5h7.3v4.3h-11.7V92.6C249.2,92.6,253.5,92.6,253.5,92.6
	z M309.8,92.6l7.2,18.8h-4.6l-1.2-3.3h-6.9l-1.2,3.3h-4.6l7.2-18.8L309.8,92.6L309.8,92.6z M271.8,96.4c-3.1,0-5.6,2.5-5.6,5.6
	c0,1.3,0.5,2.5,1.3,3.5c1.1,1.3,2.7,2.1,4.3,2.1c1.6,0,3.1-0.7,4.1-1.8c0.1-0.1,0.1-0.1,0.1-0.2l0.1-0.1c0.8-1,1.3-2.2,1.3-3.5
	s-0.4-2.5-1.3-3.5c-0.2-0.2-0.3-0.4-0.5-0.6C274.6,97,273.2,96.4,271.8,96.4L271.8,96.4z M175.5,97.3l3.2,4.7v-4.7h3.5v9.4h-3.5
	l-3.2-4.7v4.7H172v-9.4H175.5z M211.6,97.3v2.4H208v1.1h3.3v2.3H208v1.1h3.7v2.4h-7.2v-9.4L211.6,97.3L211.6,97.3z M196.4,97.3
	l1.7,5.7h0.1l1.7-5.7h3.8l-3.9,9.4h-3.3l-3.9-9.4H196.4L196.4,97.3z M217.4,97.3c2.5,0,4.4,0.8,4.4,3.2c0,1.4-0.7,2.2-1.9,2.6
	l-0.2,0.1l2.8,3.5h-4l-2.1-2.9v2.9H213v-9.4L217.4,97.3L217.4,97.3z M190.7,97.3l3.7,9.4h-3.9l-0.3-1.2h-2.9l-0.3,1.2h-4l3.7-9.4
	H190.7L190.7,97.3z M307.7,98.1l-2.1,6.1h4.3L307.7,98.1L307.7,98.1z M188.7,100.2L188.7,100.2l-0.9,3.1h1.7
	C189.5,103.3,188.7,100.2,188.7,100.2z M217.1,99.7h-0.7v1.8h0.8c0.3,0,0.7-0.1,0.9-0.2c0.2-0.2,0.3-0.4,0.3-0.7
	c0-0.3-0.1-0.5-0.3-0.7C217.9,99.8,217.5,99.7,217.1,99.7z"/>
<path class="st22" d="M103.8,124c3,0,5.9,1.3,7.8,3.7c1.5,1.8,2.3,4,2.3,6.3s-0.8,4.5-2.3,6.3l-0.1,0.1c-1.9,2.3-4.7,3.6-7.7,3.6
	c-3.6,0-6.8-1.9-8.7-4.9c-0.9-1.5-1.4-3.3-1.4-5.1c0-2.3,0.8-4.5,2.3-6.3C97.9,125.3,100.8,124,103.8,124L103.8,124z M71.2,124
	c3,0,5.8,1.3,7.7,3.6l0.1,0.1l-3.4,2.8c-1.1-1.3-2.7-2-4.3-2.1c-3.1,0-5.6,2.5-5.6,5.6s2.5,5.6,5.6,5.6c1.6,0,3.1-0.7,4.1-1.8
	l0.1-0.1l0.1-0.1v-0.1l3.4,2.8l-0.1,0.1c-1.9,2.3-4.7,3.6-7.7,3.6c-5.5,0-10-4.5-10-10S65.6,124,71.2,124z M118.7,124.6l4.6,12
	l4.6-12h4.6l-7.2,18.8h-4.1l-7.2-18.8L118.7,124.6L118.7,124.6z M85.5,124.6v14.5h7.3v4.3H81.2v-18.8
	C81.2,124.6,85.5,124.6,85.5,124.6z M141.8,124.6l7.2,18.8h-4.6l-1.2-3.3h-6.9l-1.2,3.3h-4.6l7.2-18.8L141.8,124.6L141.8,124.6z
	 M103.8,128.4c-3.1,0-5.6,2.5-5.6,5.6c0,1.3,0.4,2.5,1.3,3.5c1.1,1.3,2.7,2.1,4.3,2.1c1.6,0,3.1-0.7,4.1-1.8
	c0.1-0.1,0.1-0.1,0.1-0.2l0.1-0.1c0.8-1,1.3-2.2,1.3-3.5s-0.4-2.5-1.3-3.5c-0.2-0.2-0.3-0.4-0.5-0.6
	C106.6,129,105.2,128.4,103.8,128.4L103.8,128.4z M7.5,129.3l3.2,4.7v-4.7h3.5v9.4h-3.5L7.5,134v4.7H4v-9.4H7.5z M43.6,129.3v2.4H40
	v1.1h3.3v2.3H40v1.1h3.7v2.4h-7.2v-9.4L43.6,129.3L43.6,129.3z M28.4,129.3l1.7,5.7h0.1l1.7-5.7h3.8l-3.9,9.4h-3.3l-3.9-9.4H28.4
	L28.4,129.3z M49.4,129.3c2.5,0,4.5,0.8,4.5,3.2c0,1.4-0.7,2.2-1.9,2.6l-0.2,0.1l2.8,3.5h-4l-2.1-2.9v2.9H45v-9.4L49.4,129.3
	L49.4,129.3z M22.7,129.3l3.7,9.4h-3.9l-0.3-1.2h-2.9l-0.3,1.2h-4l3.7-9.4H22.7L22.7,129.3z M139.7,130.1l-2.1,6.1h4.3L139.7,130.1
	L139.7,130.1z M20.7,132.2L20.7,132.2l-0.9,3.1h1.7C21.5,135.3,20.7,132.2,20.7,132.2z M49.1,131.7h-0.7v1.9h0.8
	c0.3,0,0.7-0.1,0.9-0.2c0.2-0.2,0.3-0.4,0.3-0.7s-0.1-0.5-0.3-0.7C49.9,131.8,49.5,131.7,49.1,131.7z"/>
<path class="st23" d="M291,124l6,6l-6,6"/>
<g>
	<path class="st24" d="M334,91h24c5,0,9,4,9,9l0,0c0,5-4,9-9,9h-24c-5,0-9-4-9-9l0,0C325,95,329,91,334,91z"/>
	<text transform="matrix(1 0 0 1 334 104)" class="st3 st25 st26">NEW</text>
</g>
<path class="st27" d="M239.7,240.4l-18.7-10c-0.3-0.1-0.5-0.1-0.7,0.1c-0.2,0.1-0.3,0.4-0.3,0.7l2,9.2h8c0.4,0,0.7,0.3,0.7,0.7
	s-0.3,0.7-0.7,0.7h-8l-2,9.2c-0.1,0.3,0,0.5,0.3,0.7c0.1,0.1,0.3,0.1,0.4,0.1c0.1,0,0.2,0,0.3-0.1l18.7-10c0.2-0.1,0.3-0.4,0.3-0.6
	C240,240.8,239.9,240.5,239.7,240.4z"/>
<path class="st28" d="M341.7,192.4l-18.7-10c-0.3-0.1-0.5-0.1-0.7,0.1c-0.2,0.1-0.3,0.4-0.3,0.7l2,9.2h8c0.4,0,0.7,0.3,0.7,0.7
	s-0.3,0.7-0.7,0.7h-8l-2,9.2c-0.1,0.3,0,0.5,0.3,0.7c0.1,0.1,0.3,0.1,0.4,0.1s0.2,0,0.3-0.1l18.7-10c0.2-0.1,0.3-0.4,0.3-0.6
	C342,192.8,341.9,192.5,341.7,192.4z"/>
<g>
	<path class="st10" d="M79.3,322.7c0,20.8-16.8,37.6-37.6,37.6S4.1,343.5,4.1,322.8c0-20.8,16.8-37.6,37.6-37.6
		C62.5,285.1,79.3,302,79.3,322.7"/>
	<path class="st29" d="M24.4,312.7v20l17.3,10l17.3-10v-20l-17.3-10L24.4,312.7z M41.7,292.6v3"/>
	<path class="st30" d="M41.7,300.3v16.5"/>
	<path class="st29" d="M41.7,319.1v3 M41.7,322.1l-2.5,1.6"/>
	<path class="st31" d="M35,326.4l-14.7,9.4"/>
	<path class="st29" d="M18.1,337.2l-2.5,1.6 M41.7,322.1l2.5,1.6"/>
	<path class="st32" d="M48.4,326.5l14.4,9.4"/>
	<path class="st29" d="M64.8,337.2l2.5,1.6"/>
	<path class="st33" d="M47,285.3c0.1,2.8-2.2,5.1-4.9,5.1s-5.1-2.2-5.1-4.9c0-0.1,0-0.1,0-0.2c0.1-2.8,2.4-5,5.1-4.9
		C44.8,280.4,46.9,282.6,47,285.3"/>
	<path class="st10" d="M47,360.7c0,2.8-2.2,5.1-5,5.1s-5.1-2.2-5.1-5v-0.1c0-2.8,2.3-5,5.1-5C44.8,355.8,47,358,47,360.7"/>
	<path class="st33" d="M14.3,343.1c0,2.8-2.2,5.1-5,5.1s-5.1-2.2-5.1-5v-0.1c0-2.8,2.3-5,5.1-5C12.1,338.2,14.3,340.4,14.3,343.1"/>
	<path class="st10" d="M78.7,303.9c0.1,2.8-2.2,5.1-4.9,5.1c-2.8,0.1-5.1-2.2-5.1-4.9c0-0.1,0-0.1,0-0.2c0.1-2.8,2.4-5,5.1-4.9
		C76.5,299,78.6,301.2,78.7,303.9 M14.3,303.9c0.1,2.8-2.2,5.1-4.9,5.1s-5.1-2.2-5.1-4.9c0-0.1,0-0.1,0-0.2c0.1-2.8,2.4-5,5.1-4.9
		C12.1,299,14.3,301.2,14.3,303.9"/>
	<path class="st33" d="M79.2,343.1c0,2.8-2.2,5.1-5,5.1s-5.1-2.2-5.1-5v-0.1c0-2.8,2.3-5,5-5C76.9,338.1,79.2,340.3,79.2,343.1"/>
</g>
<g>
	<path class="st10" d="M178.1,225.8c0,20.9-16.9,37.8-37.8,37.8s-37.8-16.9-37.8-37.8s16.9-37.8,37.8-37.8
		C161.1,188,178.1,204.9,178.1,225.8"/>
	<path class="st33" d="M145.3,188.1c0,2.8-2.3,5.1-5.1,5.1s-5.1-2.3-5.1-5.1s2.3-5.1,5.1-5.1S145.3,185.3,145.3,188.1"/>
	<path class="st10" d="M145.3,263.9c0,2.8-2.3,5.1-5.1,5.1s-5.1-2.3-5.1-5.1s2.3-5.1,5.1-5.1S145.3,261.1,145.3,263.9"/>
	<path class="st34" d="M156.4,243.8h-32.3c-1,0-1.8-0.8-1.8-1.8v-32.3c0-1,0.8-1.8,1.8-1.8h32.3c1,0,1.8,0.8,1.8,1.8V242
		C158.2,243,157.4,243.8,156.4,243.8L156.4,243.8L156.4,243.8z"/>
	<path class="st33" d="M112.4,245.7c0.1,2.8-2.2,5.1-5,5.2c-2.8,0.1-5.1-2.2-5.2-5c0-0.1,0-0.1,0-0.2c0-2.8,2.3-5,5.1-5
		C110.1,240.8,112.3,243,112.4,245.7"/>
	<path class="st10" d="M112.4,206.3c0,2.8-2.2,5.1-5,5.1s-5.1-2.2-5.1-5v-0.1c0-2.8,2.3-5.1,5.1-5.1
		C110.1,201.2,112.4,203.5,112.4,206.3 M177.6,206.3c0,2.8-2.3,5.1-5.1,5.1s-5.1-2.3-5.1-5.1s2.3-5.1,5.1-5.1
		C175.4,201.2,177.6,203.5,177.6,206.3"/>
	<path class="st33" d="M177.6,245.7c0,2.8-2.3,5.1-5.1,5.1s-5.1-2.3-5.1-5.1l0,0c0-2.8,2.3-5.1,5.1-5.1S177.6,242.9,177.6,245.7"/>
	<path class="st35" d="M137.7,234.7c-1.8,1.8-4.6,1.8-6.4,0c-0.8-0.8-1.3-2-1.3-3.2s0.5-2.3,1.3-3.2l1.6-1.6c0.4-0.4,0.4-1,0-1.5
		l-1.6-1.6c-0.8-0.8-1.3-2-1.3-3.2s0.5-2.3,1.3-3.2c0.8-0.8,2-1.3,3.2-1.3s2.3,0.5,3.2,1.3l1.6,1.6c0.4,0.4,1,0.4,1.5,0l1.6-1.6
		c0.8-0.8,2-1.3,3.2-1.3s2.3,0.5,3.2,1.3c0.8,0.8,1.3,2,1.3,3.2s-0.5,2.3-1.3,3.2l-1.6,1.6c-0.4,0.4-0.4,1.1,0,1.5l1.6,1.6
		c0.8,0.8,1.3,2,1.3,3.2s-0.5,2.3-1.3,3.2c-0.8,0.8-2,1.3-3.2,1.3s-2.3-0.5-3.2-1.3l-1.6-1.6c-0.4-0.4-1-0.4-1.5,0L137.7,234.7
		L137.7,234.7z"/>
	<path class="st34" d="M121,214.1h-5 M121,237.9h-5 M121,226h-5 M159.2,214.1h5 M159.2,237.9h5 M159.2,226h5 M128.3,206.5v-5
		 M152.1,206.5v-5 M140.2,206.5v-5 M128.3,244.7v5 M152.1,244.7v5 M140.2,244.7v5"/>
</g>
<path class="st0" d="M409.5,55l-5-5l-0.5,0.5l4.6,4.5l-4.6,4.5l0.5,0.5L409.5,55z"/>
<path class="st36" d="M274.5,160l-5-5l-0.5,0.5l4.6,4.5l-4.6,4.5l0.5,0.5L274.5,160z"/>
<path class="st0" d="M289.5,160l5-5l0.5,0.5l-4.6,4.5l4.6,4.5l-0.5,0.5L289.5,160z"/>
<path class="st36" d="M312.5,160l5-5l0.5,0.5l-4.6,4.5l4.6,4.5l-0.5,0.5L312.5,160z"/>
<g>
	<path class="st37" d="M252,156.3l-11.8,11.8 M252,168.1l-11.8-11.8"/>
</g>
<path class="st1" d="M400.6,241.7c0,1.1-0.2,3.9-0.3,4.4c-0.4,1.5-1.1,2.1-2.5,2.3c-0.8,0.1-4.5,0.3-7.4,0.3l0,0
	c-2.9,0-6.7-0.1-7.4-0.3c-1.3-0.2-2.1-0.8-2.5-2.3c-0.1-0.5-0.3-3.3-0.3-4.4v-0.2c0-1.1,0.2-3.9,0.3-4.4c0.4-1.5,1.1-2.1,2.5-2.3
	c0.8-0.1,4.5-0.3,7.4-0.3s6.6,0.1,7.4,0.3c1.3,0.2,2.1,0.8,2.5,2.3c0.1,0.5,0.3,3.3,0.3,4.4V241.7L400.6,241.7z M388.9,244.2
	l4.9-2.6l-4.9-2.5V244.2L388.9,244.2z"/>
<path class="st2" d="M272.6,241.7c0,1.1-0.2,3.9-0.3,4.4c-0.4,1.5-1.1,2.1-2.5,2.3c-0.8,0.1-4.5,0.3-7.4,0.3l0,0
	c-2.9,0-6.7-0.1-7.4-0.3c-1.3-0.2-2.1-0.8-2.5-2.3c-0.1-0.5-0.3-3.3-0.3-4.4v-0.2c0-1.1,0.2-3.9,0.3-4.4c0.4-1.5,1.1-2.1,2.5-2.3
	c0.8-0.1,4.5-0.3,7.4-0.3s6.6,0.1,7.4,0.3c1.3,0.2,2.1,0.8,2.5,2.3c0.1,0.5,0.3,3.3,0.3,4.4V241.7L272.6,241.7z M260.9,244.2
	l4.9-2.6l-4.9-2.5V244.2L260.9,244.2z"/>
<rect y="154.9" class="st38" width="120" height="15.6"/>
</svg>
