<?xml version="1.0" encoding="utf-8"?><svg width="418" height="372" viewBox="0 0 418 372" xmlns="http://www.w3.org/2000/svg" xmlns:xlink="http://www.w3.org/1999/xlink"><svg width="23" height="23" viewBox="-4 -4 23 23" fill="none" id="icon_arrow_more" x="328" y="149" xmlns="http://www.w3.org/2000/svg"><path fill-rule="evenodd" clip-rule="evenodd" d="M6 10.484L1 5.458 1.456 5 6 9.567 10.544 5l.456.458-5 5.026z" fill="#2284F5" stroke="#2284F5" stroke-width=".5"/></svg><svg width="32" height="32" viewBox="-4 -4 32 32" fill="none" id="icon_blog" x="380" y="177" xmlns="http://www.w3.org/2000/svg"><path fill-rule="evenodd" clip-rule="evenodd" d="M22.2 14.899c0 1.823-1.461 3.3-3.263 3.3h-4.868l-1.66 2.728s-.015.034-.057.082a.56.56 0 0 1-.48.28.559.559 0 0 1-.485-.283c-.035-.045-.052-.08-.052-.08L9.673 18.2H4.804c-1.802 0-3.261-1.478-3.261-3.301V7.064c0-1.822 1.459-3.303 3.261-3.303h14.133c1.802 0 3.263 1.481 3.263 3.303v7.835zM8.325 7.775v1.192s.575-.025.575 1.026v3.042h1.217V9.71s.054-1.935-1.792-1.935zM5.86 11.958a.8.8 0 0 1-.81-.792.8.8 0 0 1 .81-.792c.448 0 .812.353.812.792a.802.802 0 0 1-.812.792zm7.233.119a.8.8 0 0 1-.812-.792.8.8 0 0 1 .812-.793c.448 0 .811.354.811.793a.802.802 0 0 1-.811.792zm-.001-2.695s-2.088 0-2.088 1.903c0 0-.066 1.88 2.088 1.88 0 0 2.135-.003 2.135-1.88 0 0 .07-1.903-2.135-1.903zm-6.954-.137s-.564 0-1.076.488V7.775h-1.26v5.141h1.275v-.402s.3.532 1.061.532c0 0 1.779-.065 1.779-1.922 0 0-.066-1.879-1.779-1.879zm11.82 2.832a.802.802 0 0 1-.812-.792c0-.439.364-.792.812-.792a.8.8 0 0 1 .81.792.8.8 0 0 1-.81.792zm.755-2.225s-.363-.47-1.06-.47c0 0-1.786-.076-1.786 1.89 0 0-.02 1.832 1.737 1.832 0 0 .715.027 1.11-.47v.287s.089.902-.805.902h-.305v1.093h.492s1.845.02 1.845-1.927V9.502h-1.228v.35z" fill="#797979"/></svg><svg width="32" height="32" viewBox="-4 -4 32 32" fill="none" id="icon_blog_hover" x="342" y="225" xmlns="http://www.w3.org/2000/svg"><path fill-rule="evenodd" clip-rule="evenodd" d="M22.2 14.899c0 1.823-1.461 3.3-3.263 3.3h-4.868l-1.66 2.728s-.015.034-.057.082a.56.56 0 0 1-.48.28.559.559 0 0 1-.485-.283c-.035-.045-.052-.08-.052-.08L9.673 18.2H4.804c-1.802 0-3.261-1.478-3.261-3.301V7.064c0-1.822 1.459-3.303 3.261-3.303h14.133c1.802 0 3.263 1.481 3.263 3.303v7.835zM8.325 7.775v1.192s.575-.025.575 1.026v3.042h1.217V9.71s.054-1.935-1.792-1.935M5.86 11.958a.8.8 0 0 1-.81-.792.8.8 0 0 1 .81-.792c.448 0 .812.353.812.792a.802.802 0 0 1-.812.792m7.233.119a.8.8 0 0 1-.812-.792.8.8 0 0 1 .812-.793c.448 0 .811.354.811.793a.802.802 0 0 1-.811.792m-.001-2.695s-2.088 0-2.088 1.903c0 0-.066 1.88 2.088 1.88 0 0 2.135-.003 2.135-1.88 0 0 .07-1.903-2.135-1.903m-6.954-.137s-.564 0-1.076.488V7.775h-1.26v5.141h1.275v-.402s.3.532 1.061.532c0 0 1.779-.065 1.779-1.922 0 0-.066-1.879-1.779-1.879m11.82 2.832a.802.802 0 0 1-.812-.792c0-.439.364-.792.812-.792a.8.8 0 0 1 .81.792.8.8 0 0 1-.81.792zm.755-2.225s-.363-.47-1.06-.47c0 0-1.786-.076-1.786 1.89 0 0-.02 1.832 1.737 1.832 0 0 .715.027 1.11-.47v.287s.089.902-.805.902h-.305v1.093h.492s1.845.02 1.845-1.927V9.502h-1.228v.35z" fill="#D9D9D9"/></svg><svg width="336" height="43" viewBox="-4 -4 336 43" fill="none" id="icon_blog_logo" y="44" xmlns="http://www.w3.org/2000/svg"><path d="M13.49 27.49c6.265 0 10.255-3.36 11.62-8.19.07-.21-.035-.385-.315-.455l-3.71-1.05c-.28-.07-.455.035-.56.315-1.155 3.22-3.605 4.76-6.895 4.76-4.865 0-7.77-3.43-7.77-8.715 0-5.25 2.87-8.715 7.77-8.715 2.905 0 5.11 1.295 6.335 3.64.105.245.315.35.56.28l3.745-1.05c.28-.07.385-.315.28-.595C22.835 3.34 18.95.82 13.56.82 6.21.82.96 6.07.96 14.155S5.965 27.49 13.49 27.49zM29.346 27h16.66c.28 0 .455-.175.455-.455V22.94c0-.28-.175-.455-.455-.455h-12.39V1.765c0-.28-.175-.455-.455-.455h-3.815c-.28 0-.455.175-.455.455v24.78c0 .28.175.455.455.455zm30.542.49c7.49 0 12.95-5.285 12.95-13.335S67.378.82 59.888.82c-7.49 0-12.95 5.285-12.95 13.335s5.46 13.335 12.95 13.335zm0-4.62c-4.935 0-8.05-3.64-8.05-8.715 0-5.075 3.115-8.715 8.05-8.715 4.935 0 8.05 3.64 8.05 8.715 0 5.075-3.115 8.715-8.05 8.715zM83.921 27h3.255c.245 0 .42-.105.525-.35L97.746 1.835c.14-.315-.035-.525-.35-.525h-4.34c-.245 0-.455.105-.525.35l-6.93 18.795L78.636 1.66c-.07-.245-.28-.35-.525-.35h-4.41c-.315 0-.49.21-.35.525L83.396 26.65c.105.245.28.35.525.35zm11.436 0h4.34c.245 0 .421-.105.526-.35l1.82-4.795h10.675l1.82 4.795c.105.245.28.35.525.35h4.41c.315 0 .49-.21.35-.525L109.568 1.66c-.105-.245-.28-.35-.525-.35h-3.255c-.245 0-.42.105-.525.35L95.007 26.475c-.14.315.035.525.35.525zm8.331-9.52l3.675-9.73 3.675 9.73h-7.35zm37.902 10.01c7.49 0 12.95-5.285 12.95-13.335S149.08.82 141.59.82c-7.49 0-12.95 5.285-12.95 13.335s5.46 13.335 12.95 13.335zm0-4.62c-4.935 0-8.05-3.64-8.05-8.715 0-5.075 3.115-8.715 8.05-8.715 4.935 0 8.05 3.64 8.05 8.715 0 5.075-3.115 8.715-8.05 8.715zM159.815 27h3.64c.28 0 .455-.175.455-.455V12.93h7.49v13.615c0 .28.175.455.455.455h3.64c.28 0 .455-.175.455-.455V12.93h7.49v13.615c0 .28.175.455.455.455h3.64c.28 0 .455-.175.455-.455V9.325c0-.28-.175-.455-.455-.455H175.95V7.645c0-1.995.77-3.01 2.17-3.01.77 0 1.295.175 1.925.63.245.21.49.14.63-.105l1.575-2.45a.482.482 0 0 0-.07-.63c-1.155-1.05-2.625-1.575-4.41-1.575-3.885 0-6.37 2.8-6.37 7.21V8.87h-7.49V7.645c0-2.03.805-3.01 2.52-3.01.945 0 1.715.21 2.835.875.28.14.525.07.63-.21l1.155-2.59c.105-.245.07-.455-.14-.63-1.365-.98-2.94-1.575-4.83-1.575-3.885 0-6.72 2.8-6.72 7.21V8.87h-2.73c-.28 0-.455.175-.455.455v3.15c0 .28.175.455.455.455h2.73v13.615c0 .28.175.455.455.455zm25.9-20.755c1.54 0 2.695-1.085 2.695-2.625S187.255.995 185.715.995c-1.54 0-2.695 1.085-2.695 2.625s1.155 2.625 2.695 2.625zm14.537 21.105c3.99 0 7.07-1.715 8.505-5.46.105-.28 0-.49-.28-.56l-3.325-.805c-.245-.07-.455.035-.595.28-.77 1.61-2.17 2.415-4.06 2.415-3.29 0-4.865-2.415-4.865-5.285s1.575-5.285 4.865-5.285c1.89 0 3.22.77 4.025 2.31.14.245.35.35.595.28l3.01-.875c.28-.07.42-.315.315-.595-1.33-3.57-4.165-5.25-8.225-5.25-5.67 0-9.275 3.85-9.275 9.415 0 5.565 3.57 9.415 9.31 9.415zm13.449-21.7c1.505 0 2.66-1.015 2.66-2.52 0-1.505-1.155-2.52-2.66-2.52-1.505 0-2.66 1.015-2.66 2.52 0 1.505 1.155 2.52 2.66 2.52zM211.881 27h3.64c.28 0 .455-.175.455-.455V9.325c0-.28-.175-.455-.455-.455h-3.64c-.28 0-.455.175-.455.455v17.22c0 .28.175.455.455.455zm15.462.35c2.52 0 4.62-1.05 5.915-2.835l.105 2.03c0 .315.21.455.49.455h3.29c.28 0 .455-.175.455-.455V9.325c0-.28-.175-.455-.455-.455h-3.29c-.28 0-.49.14-.49.455l-.105 2.03c-1.295-1.785-3.395-2.835-5.915-2.835-5.18 0-8.47 3.85-8.47 9.415 0 5.565 3.29 9.415 8.47 9.415zm1.12-4.13c-2.905 0-4.9-2.17-4.9-5.285s1.995-5.285 4.9-5.285c2.905 0 4.9 2.17 4.9 5.285s-1.995 5.285-4.9 5.285zM242 27h3.64c.28 0 .455-.175.455-.455V1.205c0-.28-.175-.455-.455-.455H242c-.28 0-.455.175-.455.455v25.34c0 .28.175.455.455.455zm15.807 0h9.17c6.93 0 9.87-2.835 9.87-7.35 0-2.94-1.61-5.25-4.83-6.125 2.31-.945 3.535-3.08 3.535-5.6 0-3.815-2.765-6.615-8.925-6.615h-8.82c-.28 0-.455.175-.455.455v24.78c0 .28.175.455.455.455zm8.645-21.28c2.695 0 4.27 1.05 4.27 2.975 0 1.96-1.575 2.975-4.27 2.975h-4.375V5.72h4.375zm.665 10.22c3.15 0 4.83 1.155 4.83 3.29 0 2.17-1.68 3.36-4.83 3.36h-5.04v-6.65h5.04zM280.581 27h3.64c.28 0 .455-.175.455-.455V1.205c0-.28-.175-.455-.455-.455h-3.64c-.28 0-.455.175-.455.455v25.34c0 .28.175.455.455.455zm16.582.35c5.81 0 9.59-3.92 9.59-9.415 0-5.495-3.78-9.415-9.59-9.415-5.81 0-9.59 3.92-9.59 9.415 0 5.495 3.78 9.415 9.59 9.415zm0-4.13c-2.905 0-4.9-2.17-4.9-5.285s1.995-5.285 4.9-5.285c2.905 0 4.9 2.17 4.9 5.285s-1.995 5.285-4.9 5.285zm20.586 11.76c5.705 0 9.59-3.22 9.59-8.995V9.325c0-.28-.175-.455-.455-.455h-3.29c-.28 0-.49.14-.49.455l-.105 2.03c-1.295-1.785-3.395-2.835-5.915-2.835-5.18 0-8.47 3.85-8.47 9.415 0 5.565 3.29 9.415 8.47 9.415 2.38 0 4.375-.945 5.705-2.555v1.645c0 3.22-2.38 4.41-5.18 4.41-2.45 0-3.85-.98-4.725-2.485-.14-.245-.35-.35-.595-.245l-2.94 1.085c-.28.105-.385.28-.245.56 1.4 3.465 4.76 5.215 8.645 5.215zm.455-11.76c-2.905 0-4.9-2.17-4.9-5.285s1.995-5.285 4.9-5.285c2.905 0 4.9 2.17 4.9 5.285s-1.995 5.285-4.9 5.285z" fill="#fff"/></svg><svg width="418" height="44" viewBox="-4 -4 418 44" fill="none" id="icon_ceb_logo" xmlns="http://www.w3.org/2000/svg"><path d="M149.289 24.107v3.309h-15.795V1.127h15.607V4.43h-12.092v8.075h11.148v3.268h-11.148v8.334h12.28zM169.171 15.888v11.527h-3.289V16.072c0-3.081-1.778-4.807-4.703-4.807-3.022 0-5.477 1.766-5.477 6.196v9.954h-3.273V8.635h3.289v2.705c1.395-2.215 3.473-3.19 6.12-3.19 4.42 0 7.333 2.928 7.333 7.738zM192.127 8.636v17.988c0 5.856-4.722 8.785-9.635 8.785-4.232 0-7.408-1.614-8.957-4.58l2.872-1.614c.868 1.764 2.458 3.153 6.161 3.153 3.928 0 6.311-2.215 6.311-5.744v-2.667a8.168 8.168 0 0 1-3.054 2.812c-1.245.66-2.64.99-4.051.957-5.367 0-9.65-4.333-9.65-9.816 0-5.483 4.27-9.76 9.638-9.76 3.173 0 5.593 1.426 7.104 3.716v-3.23h3.261zm-3.248 9.274a6.667 6.667 0 0 0-2.021-4.634 6.75 6.75 0 0 0-4.706-1.907 6.752 6.752 0 0 0-4.706 1.907 6.666 6.666 0 0 0-1.551 7.236 6.72 6.72 0 0 0 3.649 3.705 6.765 6.765 0 0 0 7.417-1.487 6.661 6.661 0 0 0 1.918-4.82zM195.795 3.04c0-.582.233-1.14.647-1.552a2.219 2.219 0 0 1 3.126 0 2.188 2.188 0 0 1 0 3.106 2.217 2.217 0 0 1-3.126 0 2.191 2.191 0 0 1-.647-1.553zm.567 5.609h3.286v18.767h-3.286V8.65zM220.661 15.888v11.527h-3.289V16.072c0-3.081-1.774-4.807-4.684-4.807-3.022 0-5.48 1.766-5.48 6.196v9.954h-3.289V8.635h3.289v2.705c1.398-2.215 3.477-3.19 6.123-3.19 4.421 0 7.33 2.928 7.33 7.738zM233.623 24.82c2.609 0 4.496-1.2 5.443-2.742l2.793 1.58c-1.661 2.551-4.533 4.243-8.311 4.243-6.086 0-10.13-4.243-10.13-9.876 0-5.558 4.007-9.875 9.901-9.875 5.706 0 9.406 4.654 9.406 9.913a9.7 9.7 0 0 1-.113 1.464h-15.83c.643 3.38 3.342 5.293 6.841 5.293zm-6.841-8.147h12.623c-.568-3.72-3.252-5.458-6.086-5.458-3.552 0-6.016 2.18-6.537 5.458zM255.069 24.82c2.609 0 4.5-1.2 5.443-2.742l2.797 1.58c-1.662 2.551-4.534 4.243-8.315 4.243-6.082 0-10.127-4.243-10.127-9.876 0-5.558 4.007-9.875 9.901-9.875 5.707 0 9.406 4.654 9.406 9.913 0 .49-.038.98-.113 1.464h-15.833c.646 3.38 3.33 5.293 6.841 5.293zm-6.837-8.147h12.619c-.565-3.72-3.248-5.458-6.083-5.458-3.552 0-6.01 2.18-6.536 5.458zM276.387 8.3v3.426c-2.822-.112-5.895 1.315-5.895 5.745v9.945h-3.289V8.636h3.289v3.155c1.207-2.629 3.527-3.492 5.895-3.492zM278.691 3.04a2.186 2.186 0 0 1 .647-1.552 2.22 2.22 0 0 1 3.126 0 2.198 2.198 0 0 1 .648 1.553c0 .582-.233 1.14-.648 1.553a2.217 2.217 0 0 1-3.126 0 2.191 2.191 0 0 1-.647-1.553zm.567 5.609h3.286v18.767h-3.286V8.65zM303.142 15.888v11.527h-3.289V16.072c0-3.081-1.775-4.807-4.684-4.807-3.026 0-5.481 1.766-5.481 6.196v9.954h-3.289V8.635h3.296v2.705c1.398-2.215 3.477-3.19 6.123-3.19 4.414 0 7.324 2.928 7.324 7.738zM326.102 8.636v17.988c0 5.856-4.725 8.785-9.638 8.785-4.233 0-7.409-1.614-8.958-4.58l2.882-1.614c.868 1.764 2.458 3.153 6.16 3.153 3.932 0 6.312-2.215 6.312-5.744v-2.667a8.175 8.175 0 0 1-3.058 2.815 8.233 8.233 0 0 1-4.056.954c-5.358 0-9.638-4.333-9.638-9.816 0-5.483 4.28-9.76 9.638-9.76 3.173 0 5.593 1.426 7.104 3.716v-3.23h3.252zm-3.252 9.274a6.666 6.666 0 0 0-2.02-4.634 6.752 6.752 0 0 0-4.706-1.907c-1.76 0-3.449.684-4.706 1.907a6.663 6.663 0 0 0-2.021 4.634 6.668 6.668 0 0 0 1.918 4.82 6.741 6.741 0 0 0 4.809 2.01c.895 0 1.782-.178 2.608-.523a6.72 6.72 0 0 0 3.649-3.705 6.642 6.642 0 0 0 .469-2.602zM358.245 19.978c0 4.205-3.401 7.432-7.671 7.432h-11.413V1.127h10.582c4.119 0 7.405 3.116 7.405 7.165a6.51 6.51 0 0 1-.743 3.1 6.551 6.551 0 0 1-2.129 2.383 6.716 6.716 0 0 1 2.919 2.511 6.653 6.653 0 0 1 1.05 3.692zM342.682 4.392v8.038h7.067a3.982 3.982 0 0 0 2.809-1.194 3.914 3.914 0 0 0 1.116-2.825 3.927 3.927 0 0 0-1.125-2.821 4 4 0 0 0-2.806-1.197h-7.061zm12.093 15.47a4.182 4.182 0 0 0-.3-1.616 4.184 4.184 0 0 0-2.274-2.3 4.224 4.224 0 0 0-1.621-.327h-7.898v8.524h7.898a4.237 4.237 0 0 0 2.998-1.267 4.172 4.172 0 0 0 1.19-3.014h.007zM361.307 0h3.285v27.415h-3.285V0zM367.807 18.026a9.845 9.845 0 0 1 1.67-5.505 9.947 9.947 0 0 1 4.468-3.652 10.016 10.016 0 0 1 5.757-.567 9.972 9.972 0 0 1 5.103 2.708 9.868 9.868 0 0 1 2.726 5.071 9.833 9.833 0 0 1-.571 5.72 9.91 9.91 0 0 1-3.675 4.44 10.007 10.007 0 0 1-5.54 1.66 9.906 9.906 0 0 1-3.816-.729 9.855 9.855 0 0 1-3.236-2.138 9.784 9.784 0 0 1-2.153-3.216 9.732 9.732 0 0 1-.733-3.793zm16.616 0a6.588 6.588 0 0 0-1.901-4.78 6.709 6.709 0 0 0-9.537 0 6.606 6.606 0 0 0-1.902 4.78 6.606 6.606 0 0 0 1.902 4.78 6.708 6.708 0 0 0 9.537 0 6.636 6.636 0 0 0 1.436-2.2c.326-.82.485-1.698.465-2.58zM410 8.636v17.988c0 5.856-4.725 8.785-9.638 8.785-4.232 0-7.408-1.614-8.957-4.58l2.872-1.614c.871 1.764 2.458 3.153 6.161 3.153 3.931 0 6.311-2.215 6.311-5.744v-2.667a8.168 8.168 0 0 1-3.054 2.812c-1.245.66-2.64.99-4.051.957-5.367 0-9.622-4.333-9.622-9.816 0-5.483 4.271-9.76 9.638-9.76 3.173 0 5.593 1.426 7.104 3.716v-3.23H410zm-3.251 9.274a6.667 6.667 0 0 0-2.021-4.634 6.75 6.75 0 0 0-4.706-1.907 6.752 6.752 0 0 0-4.706 1.907 6.667 6.667 0 0 0-2.021 4.634 6.661 6.661 0 0 0 1.919 4.82 6.72 6.72 0 0 0 2.2 1.487 6.765 6.765 0 0 0 7.417-1.487 6.661 6.661 0 0 0 1.918-4.82zM93.647 1.146l-6.493 16.817-6.49-16.817h-6.512l10.143 26.27h5.718l10.143-26.27h-6.509zM34.209 1.146h-6.073v26.269h16.338v-6.037H34.209V1.146zM112.937 1.146h-5.713l-10.148 26.27h6.508l1.671-4.62h9.641l1.675 4.62h6.508l-10.142-26.27zm-5.86 16.222l3-8.561 2.998 8.561h-5.998zM69.915 4.61a14.063 14.063 0 0 0-4.89-3.292 14.139 14.139 0 0 0-11.543.455 14.043 14.043 0 0 0-4.614 3.666 13.917 13.917 0 0 0-3.167 10.224 13.95 13.95 0 0 0 5.036 9.455 14.128 14.128 0 0 0 10.29 3.148 14.094 14.094 0 0 0 9.515-5.004l.113-.147a13.89 13.89 0 0 0 3.178-8.836 13.89 13.89 0 0 0-3.178-8.837 12.999 12.999 0 0 0-.74-.831zM65.84 19.203l-.072.088a5.056 5.056 0 0 1-.206.246 7.933 7.933 0 0 1-4.09 2.407 7.97 7.97 0 0 1-4.74-.353 7.912 7.912 0 0 1-3.684-2.984 7.835 7.835 0 0 1 .246-9.008 7.92 7.92 0 0 1 3.842-2.78 7.971 7.971 0 0 1 4.752-.096 7.926 7.926 0 0 1 3.953 2.624 7.69 7.69 0 0 1 1.784 4.922 7.69 7.69 0 0 1-1.784 4.922v.012zM24.953 23.135l-4.819-3.92-.065.079-.113.137-.098.106a7.848 7.848 0 0 1-4 2.342 7.885 7.885 0 0 1-4.634-.32 7.83 7.83 0 0 1-3.638-2.867 7.754 7.754 0 0 1-1.366-4.41A7.754 7.754 0 0 1 7.583 9.88a7.83 7.83 0 0 1 3.627-2.866 7.885 7.885 0 0 1 4.621-.331 7.849 7.849 0 0 1 4.3 2.663l4.822-3.919-.11-.13A14.078 14.078 0 0 0 17.709.78a14.153 14.153 0 0 0-8.452.367 14.057 14.057 0 0 0-6.711 5.117A13.914 13.914 0 0 0 2.543 22.3c1.656 2.35 4 4.137 6.713 5.118a14.15 14.15 0 0 0 8.453.365 14.075 14.075 0 0 0 7.134-4.52l.11-.128z" fill="#fff"/></svg><svg width="48" height="48" viewBox="-4 -4 48 48" fill="none" id="icon_chatbot" x="230" y="177" xmlns="http://www.w3.org/2000/svg"><path fill-rule="evenodd" clip-rule="evenodd" d="M8.502 2h22.506a7.51 7.51 0 0 1 7.502 7.502v16.505a7.51 7.51 0 0 1-7.502 7.502H11.503L4 38.76H1V9.502A7.51 7.51 0 0 1 8.502 2zM34.19 29.188a4.506 4.506 0 0 0 1.32-3.181V9.502a4.506 4.506 0 0 0-4.502-4.501H8.502a4.506 4.506 0 0 0-4.501 4.501v25.594l6.555-4.588h20.452a4.506 4.506 0 0 0 3.182-1.32zM15.403 14.004a1.65 1.65 0 1 1-3.301 0 1.65 1.65 0 0 1 3.3 0zm11.854-1.501v3h-3v-3h3zm-7.5 9.753a4.501 4.501 0 0 1-4.24-3.001h-3.113a7.501 7.501 0 0 0 14.704 0h-3.113a4.5 4.5 0 0 1-4.239 3z" fill="url(#afa)"/><defs><linearGradient id="afa" x1="19.755" y1="1.992" x2="19.755" y2="38.752" gradientUnits="userSpaceOnUse"><stop stop-color="#05D686"/><stop offset="1" stop-color="#2284F5"/></linearGradient></defs></svg><svg width="48" height="48" viewBox="-4 -4 48 48" fill="none" id="icon_chatbot_default_img" x="182" y="177" xmlns="http://www.w3.org/2000/svg"><path fill-rule="evenodd" clip-rule="evenodd" d="M8 0h24a8.01 8.01 0 0 1 8 8v17.6a8.01 8.01 0 0 1-8 8H11.2l-8 5.6H0V8a8.01 8.01 0 0 1 8-8zm27.393 28.993c.9-.9 1.406-2.12 1.407-3.393V8A4.805 4.805 0 0 0 32 3.2H8A4.805 4.805 0 0 0 3.2 8v27.293l6.99-4.893H32a4.805 4.805 0 0 0 3.393-1.407zM15.358 12.8a1.76 1.76 0 1 1-3.52 0 1.76 1.76 0 0 1 3.52 0zM28 11.2v3.2h-3.2v-3.2H28zm-8 10.4a4.8 4.8 0 0 1-4.52-3.2h-3.32a8 8 0 0 0 15.68 0h-3.32A4.8 4.8 0 0 1 20 21.6z" fill="#DFDFDF"/></svg><svg width="133" height="22" viewBox="-4 -4 133 22" fill="none" id="icon_chatbot_logo" x="153" y="119" xmlns="http://www.w3.org/2000/svg"><path d="M66.94 2.245c1.64 0 3.094.853 3.778 2.17l1.384-.802C71.075 1.837 69.129.707 66.94.707c-1.81 0-3.314.6-4.495 1.795-1.181 1.196-1.763 2.668-1.763 4.411 0 1.744.582 3.212 1.763 4.411 1.18 1.196 2.685 1.796 4.495 1.796 1.093 0 2.1-.258 3.024-.788a5.575 5.575 0 0 0 2.138-2.137l-1.384-.787c-.684 1.298-2.137 2.152-3.778 2.152-1.383 0-2.513-.445-3.384-1.332-.872-.89-1.3-2.001-1.3-3.315 0-1.331.428-2.442 1.3-3.333.871-.89 1.997-1.335 3.384-1.335zm11.11 1.88c-1.247 0-2.17.478-2.77 1.453V.928h-1.487v11.964h1.487v-4.53c0-1.912.99-2.82 2.48-2.82 1.316 0 2.118.801 2.118 2.188v5.162h1.486V7.646c0-2.171-1.317-3.521-3.314-3.521zm16.669-2.171h-1.486v2.391H91.54V5.78h1.692v4.632c0 2.119 1.163 2.821 3.76 2.48V11.56c-1.523.07-2.273.169-2.273-1.145V5.784h2.273V4.349H94.72V1.954zm9.002 2.171c-1.42 0-2.494.563-3.23 1.692V.927h-1.486v11.965h1.486V11.42c.736 1.13 1.814 1.692 3.23 1.692 1.196 0 2.222-.426 3.061-1.298.839-.872 1.265-1.95 1.265-3.197s-.426-2.307-1.265-3.179c-.839-.868-1.865-1.313-3.061-1.313zm1.964 6.68c-.581.582-1.298.873-2.152.873-.872 0-1.589-.291-2.17-.872-.581-.6-.872-1.317-.872-2.19 0-.871.291-1.589.872-2.17.581-.6 1.298-.89 2.17-.89.854 0 1.571.29 2.152.89.582.581.872 1.299.872 2.17 0 .876-.29 1.594-.872 2.19zm7.907-6.68c-1.248 0-2.326.427-3.197 1.299-.872.871-1.299 1.93-1.299 3.196 0 1.266.427 2.325 1.299 3.197.871.872 1.949 1.299 3.197 1.299 1.247 0 2.325-.427 3.196-1.299.872-.872 1.317-1.931 1.317-3.197 0-1.265-.445-2.325-1.317-3.196-.871-.872-1.949-1.3-3.196-1.3zm2.152 6.666c-.582.581-1.299.872-2.152.872-.839 0-1.557-.29-2.138-.872-.581-.581-.872-1.299-.872-2.17 0-.872.291-1.59.872-2.171.581-.581 1.299-.872 2.138-.872.853 0 1.574.29 2.152.872.581.581.872 1.299.872 2.17 0 .872-.291 1.59-.872 2.17zm8.24-6.446h-2.273v-2.39h-1.486v2.39h-1.693V5.78h1.693v4.632c0 2.119 1.162 2.821 3.759 2.48V11.56c-1.523.07-2.273.169-2.273-1.145V5.784h2.273V4.345zM43.292.935l-2.936 7.656L37.42.935h-2.946l4.587 11.957h2.587L46.234.935h-2.943zm-26.885 0h-2.744v11.957h7.387v-2.745h-4.643V.935zm33.022 0L44.84 12.892h2.943l.758-2.1h4.36l.758 2.1h2.943L52.015.935H49.43zm-.063 7.388l1.358-3.9 1.357 3.9h-2.715zM32.561 2.514A6.307 6.307 0 0 0 27.97.553a6.351 6.351 0 0 0-4.93 2.34 6.388 6.388 0 0 0-1.434 4.024 6.384 6.384 0 0 0 1.434 4.025 6.338 6.338 0 0 0 4.926 2.34c1.884 0 3.66-.828 4.875-2.274a1.92 1.92 0 0 0 .051-.066 6.367 6.367 0 0 0 1.439-4.021A6.37 6.37 0 0 0 32.892 2.9a4.681 4.681 0 0 0-.33-.386zm-1.85 6.644l-.033.04a3.559 3.559 0 0 1-2.715 1.27 3.527 3.527 0 0 1-2.749-1.307 3.564 3.564 0 0 1-.801-2.244c0-.817.283-1.615.801-2.244a3.533 3.533 0 0 1 2.749-1.306c.893 0 1.75.339 2.413.95.107.099.213.213.331.36.526.644.806 1.416.806 2.24a3.446 3.446 0 0 1-.802 2.24zm-20.698.04l-.051.063-.044.047a3.559 3.559 0 0 1-2.62 1.16 3.555 3.555 0 0 1-3.55-3.55 3.555 3.555 0 0 1 3.55-3.551c.986 0 1.935.42 2.609 1.148.044.048.088.1.136.154l2.181-1.784-.048-.059A6.351 6.351 0 0 0 7.302.553 6.371 6.371 0 0 0 .938 6.917c0 3.51 2.854 6.36 6.364 6.36a6.35 6.35 0 0 0 4.874-2.273l.048-.059-2.178-1.784-.033.037zm76.775-5.036c-1.59 0-2.7.607-3.495 1.802l1.2.67c.485-.78 1.265-1.163 2.332-1.163.698 0 1.24.159 1.626.471.386.317.58.78.58 1.402v.254h-.57c-.544 0-1.144.026-1.798.073a7.197 7.197 0 0 0-1.829.365 3.489 3.489 0 0 0-1.42.89c-.379.4-.57.953-.57 1.655 0 .412.088.777.265 1.093.177.316.416.578.714.791a3.29 3.29 0 0 0 1.048.482c.401.11.828.162 1.284.162.684 0 1.273-.14 1.762-.42.49-.28.88-.636 1.17-1.074h.037v1.273h1.39V7.76c0-1.214-.29-2.116-.875-2.708-.581-.592-1.534-.89-2.851-.89zm2.244 5.183a3.12 3.12 0 0 1-.191.99c-.114.309-.28.577-.497.81a2.382 2.382 0 0 1-.81.555c-.323.14-.702.21-1.133.21-.559 0-1.026-.11-1.397-.335-.376-.225-.563-.604-.563-1.137 0-.581.28-1 .838-1.255.56-.253 1.314-.382 2.267-.382h1.486v.544z" fill="#000"/></svg><svg width="38" height="38" viewBox="-4 -4 38 38" fill="none" id="icon_chatbot_profile" x="278" y="177" xmlns="http://www.w3.org/2000/svg"><path d="M29.5 15c0 8.008-6.492 14.5-14.5 14.5S.5 23.008.5 15 6.992.5 15 .5 29.5 6.992 29.5 15z" fill="#fff" stroke="#EEE"/><path fill-rule="evenodd" clip-rule="evenodd" d="M10.179 7.071h9.642a3.218 3.218 0 0 1 3.215 3.215v7.07a3.218 3.218 0 0 1-3.215 3.215h-8.357l-3.214 2.25H6.964V10.285a3.218 3.218 0 0 1 3.215-3.214zM21.184 18.72a1.93 1.93 0 0 0 .566-1.363v-7.071a1.93 1.93 0 0 0-1.929-1.93H10.18a1.93 1.93 0 0 0-1.929 1.93v10.966l2.809-1.966h8.762a1.93 1.93 0 0 0 1.363-.566zm-8.049-6.506a.707.707 0 1 1-1.414 0 .707.707 0 0 1 1.414 0zm5.08-.643v1.286h-1.286V11.57h1.285zM15 15.75a1.929 1.929 0 0 1-1.816-1.286H11.85a3.215 3.215 0 0 0 6.3 0h-1.333A1.929 1.929 0 0 1 15 15.75z" fill="url(#aia)"/><defs><linearGradient id="aia" x1="15" y1="7.068" x2="15" y2="22.818" gradientUnits="userSpaceOnUse"><stop stop-color="#05D686"/><stop offset="1" stop-color="#2284F5"/></linearGradient></defs></svg><svg width="29" height="26" viewBox="-4 -4 29 26" id="icon_dark_blog" x="124" y="149" xmlns="http://www.w3.org/2000/svg"><path fill="#FFF" fill-rule="evenodd" d="M17.682 0C19.514 0 21 1.52 21 3.392v8.046c0 1.872-1.486 3.39-3.318 3.39h-4.948l-1.688 2.8s-.015.035-.058.085c-.1.17-.28.287-.488.287a.567.567 0 0 1-.492-.29.506.506 0 0 1-.054-.082l-1.689-2.8h-4.95C1.483 14.828 0 13.31 0 11.438V3.392C0 1.52 1.483 0 3.315 0h14.367zm-1.306 5.65h-.054c-.302.006-1.761.13-1.761 1.94 0 0-.02 1.882 1.766 1.882h.036c.152-.002.744-.04 1.092-.483v.295c.007.106.037.927-.818.927h-.31v1.122h.506c.121 0 1.87-.049 1.87-1.979v-3.58h-1.248v.358l-.007-.008a1.418 1.418 0 0 0-1.072-.475zM3.579 4.121H2.297v5.28h1.296v-.413c.047.075.361.546 1.08.546 0 0 1.807-.067 1.807-1.974 0 0-.066-1.93-1.808-1.93 0 0-.573 0-1.093.501v-2.01zm8.163 1.527s-2.122 0-2.122 1.955c0 0-.068 1.931 2.122 1.931 0 0 2.17-.004 2.17-1.93v-.056c-.008-.316-.152-1.9-2.17-1.9zM6.894 4v1.225h.02c.103.008.564.094.564 1.053v3.125h1.238V5.958C8.714 5.714 8.636 4 6.894 4zM4.388 6.79c.456 0 .825.363.825.814 0 .45-.37.813-.825.813a.818.818 0 0 1-.824-.813c0-.45.368-.814.824-.814zm7.355 0c.455 0 .825.363.825.814 0 .45-.37.813-.825.813a.818.818 0 0 1-.825-.813c0-.45.368-.814.825-.814zm4.945 0c.456 0 .824.363.824.814 0 .45-.368.813-.824.813a.819.819 0 0 1-.825-.813c0-.45.37-.814.825-.814z" opacity=".2"/></svg><svg width="26" height="26" viewBox="-4 -4 26 26" id="icon_dark_facebook" x="207" y="149" xmlns="http://www.w3.org/2000/svg"><path fill="#FFF" fill-rule="evenodd" d="M17.007 0H.993A.993.993 0 0 0 0 .994v16.013c0 .549.445.993.993.993h8.622v-6.97H7.269V8.312h2.346V6.31c0-2.326 1.42-3.592 3.493-3.592.994 0 1.848.074 2.098.108v2.429h-1.44c-1.128 0-1.346.537-1.346 1.324v1.734h2.69l-.35 2.716h-2.34V18h4.587a.993.993 0 0 0 .993-.993V.994A.993.993 0 0 0 17.007 0" opacity=".2"/></svg><svg width="124" height="28" viewBox="-4 -4 124 28" id="icon_dark_footer_logo" y="149" xmlns="http://www.w3.org/2000/svg"><path fill="#565656" fill-rule="evenodd" d="M79.83 2a7.98 7.98 0 0 1 6.222 2.942A7.99 7.99 0 0 1 87.867 10a7.992 7.992 0 0 1-1.816 5.057s-.052.069-.065.084A8.038 8.038 0 0 1 79.83 18a8.027 8.027 0 0 1-6.92-3.934A7.986 7.986 0 0 1 71.794 10a7.99 7.99 0 0 1 1.812-5.06A8.025 8.025 0 0 1 79.83 2zM53.723 2a8.036 8.036 0 0 1 6.156 2.859l.062.074-2.753 2.243a4.504 4.504 0 0 0-3.465-1.64c-2.473 0-4.484 2.002-4.484 4.464 0 2.462 2.011 4.464 4.484 4.464 1.251 0 2.457-.53 3.307-1.456l.056-.06.066-.078.037-.046 2.752 2.243-.062.074A8.038 8.038 0 0 1 53.723 18c-4.431 0-8.036-3.589-8.036-8s3.605-8 8.036-8zm38.045.483l3.708 9.624 3.71-9.624h3.718L97.11 17.517h-3.267L88.049 2.483h3.719zm-26.538 0v11.58h5.863v3.454H61.76V2.483h3.47zm44.976 0L116 17.517h-3.718l-.956-2.643h-5.507l-.955 2.643h-3.719l5.794-15.034h3.267zM79.83 5.536A4.477 4.477 0 0 0 75.346 10a4.46 4.46 0 0 0 1.011 2.823 4.48 4.48 0 0 0 3.473 1.641c1.252 0 2.457-.53 3.307-1.457.041-.045.08-.092.119-.14l.04-.05A4.386 4.386 0 0 0 84.315 10a4.382 4.382 0 0 0-1.019-2.817 4.232 4.232 0 0 0-.42-.452 4.476 4.476 0 0 0-3.046-1.195zm-77.023.706l2.597 3.793V6.242H8.2v7.517H5.395L2.798 9.966v3.793H0V6.242h2.807zm33.487 0c2.024 0 3.56.623 3.56 2.559 0 1.084-.567 1.783-1.463 2.092l-.171.054 2.261 2.811h-3.215l-1.67-2.347v2.347h-2.797V6.242h3.495zm-4.642 0v1.957h-2.9v.885h2.672v1.847h-2.672v.87h2.99v1.958H25.98V6.242h5.671zm-16.718 0l2.943 7.516h-3.11l-.273-.981h-2.31l-.271.981H8.8l2.942-7.516h3.191zm4.563 0l1.378 4.532h.077l1.38-4.532h3.05l-3.148 7.517h-2.641l-3.148-7.517h3.052zm89.075.625l-1.713 4.901h3.427l-1.714-4.901zM13.377 8.56h-.076l-.659 2.48h1.394l-.659-2.48zm22.72-.427h-.59v1.48h.6c.26 0 .575-.065.738-.197a.64.64 0 0 0 .24-.529c0-.233-.073-.417-.229-.552-.156-.134-.478-.202-.76-.202z"/></svg><svg width="26" height="26" viewBox="-4 -4 26 26" id="icon_dark_instargram" x="181" y="149" xmlns="http://www.w3.org/2000/svg"><path fill="#FFF" fill-rule="evenodd" d="M12.804 0A5.195 5.195 0 0 1 18 5.195v7.61A5.194 5.194 0 0 1 12.804 18H5.195A5.193 5.193 0 0 1 0 12.805v-7.61A5.195 5.195 0 0 1 5.195 0zM9 4.375a4.67 4.67 0 0 0-4.669 4.67 4.67 4.67 0 1 0 9.34 0A4.672 4.672 0 0 0 9 4.376zm0 1.642a3.028 3.028 0 1 1 0 6.056 3.028 3.028 0 0 1 0-6.056zm4.827-2.909a1.089 1.089 0 1 0 0 2.178 1.089 1.089 0 0 0 0-2.178z" opacity=".2"/></svg><svg width="28" height="26" viewBox="-4 -4 28 26" id="icon_dark_youtube" x="153" y="149" xmlns="http://www.w3.org/2000/svg"><path fill="#FFF" fill-rule="evenodd" d="M17.283 2.252c1.317.21 2.03.788 2.413 2.298.128.502.304 3.278.304 4.333v.234c0 1.058-.176 3.83-.304 4.336-.382 1.505-1.096 2.086-2.413 2.294-.758.112-4.398.253-7.29.253l.013-.002c-2.891 0-6.534-.14-7.289-.25-1.316-.21-2.033-.79-2.412-2.295C.176 12.947 0 10.175 0 9.117v-.234c0-1.055.176-3.83.305-4.333.38-1.506 1.096-2.089 2.412-2.298.73-.107 4.163-.243 7-.252h.282c2.89 0 6.529.141 7.284.252zM8.507 6.47v5.06l4.796-2.589L8.507 6.47z" opacity=".2"/></svg><svg width="32" height="32" viewBox="-4 -4 32 32" fill="none" id="icon_facebook" x="348" y="177" xmlns="http://www.w3.org/2000/svg"><path fill-rule="evenodd" clip-rule="evenodd" d="M19.84 3.89H4.36a.96.96 0 0 0-.96.961V20.33c0 .53.43.96.96.96h8.334v-6.74h-2.267v-2.625h2.268V9.989c0-2.247 1.372-3.471 3.376-3.471.96 0 1.787.071 2.028.104V8.97h-1.392c-1.09 0-1.3.519-1.3 1.28v1.676h2.599l-.338 2.625h-2.262v6.739h4.434c.53 0 .96-.43.96-.96V4.85a.96.96 0 0 0-.96-.961" fill="#797979"/></svg><svg width="32" height="32" viewBox="-4 -4 32 32" fill="none" id="icon_facebook_hover" x="182" y="225" xmlns="http://www.w3.org/2000/svg"><path fill-rule="evenodd" clip-rule="evenodd" d="M19.84 3.89H4.36a.96.96 0 0 0-.96.961V20.33c0 .53.43.96.96.96h8.334v-6.74h-2.267v-2.625h2.268V9.989c0-2.247 1.372-3.471 3.376-3.471.96 0 1.787.071 2.028.104V8.97h-1.392c-1.09 0-1.3.519-1.3 1.28v1.676h2.599l-.338 2.625h-2.262v6.739h4.434c.53 0 .96-.43.96-.96V4.85a.96.96 0 0 0-.96-.961" fill="#D9D9D9"/></svg><svg width="98" height="98" viewBox="-4 -4 98 98" id="icon_feature_01" x="182" y="274" xmlns="http://www.w3.org/2000/svg"><g fill="none" fill-rule="evenodd"><path fill="#0AEA8E" d="M56.4 85.799H18c-4.418 0-8-3.599-8-8.039l8-66.721C18 6.599 21.582 3 26 3h22.4c4.418 0 8 3.6 8 8.039l8 66.721c0 4.44-3.582 8.039-8 8.039" style="mix-blend-mode:multiply"/><path stroke="#FFF" stroke-linecap="round" stroke-linejoin="round" stroke-width="2.4" d="M24.4 33.145v5.627m6.4-9.646v13.666m6.4-19.293v24.92m6.4-19.293v13.666m6.4-9.647v5.627"/><path fill="#00C6FF" d="M74.4 85.719h-14c-3.093 0-5.6-2.52-5.6-5.627V46.61c0-6.993 5.64-12.66 12.6-12.66S80 39.616 80 46.61v33.482c0 3.107-2.507 5.627-5.6 5.627" style="mix-blend-mode:multiply"/></g></svg><svg width="98" height="98" viewBox="-4 -4 98 98" id="icon_feature_02" x="84" y="274" xmlns="http://www.w3.org/2000/svg"><g fill="none" fill-rule="evenodd"><path fill="#00C6FF" d="M53.655 15.852c0 7.098-5.728 12.852-12.792 12.852-7.065 0-12.792-5.754-12.792-12.852C28.07 8.754 33.798 3 40.863 3c7.064 0 12.792 5.754 12.792 12.852" style="mix-blend-mode:multiply"/><path fill="#0AEA8E" d="M66.428 18.487h-52.3c-4.49 0-8.128 3.63-8.128 8.107v11.748c0 2.537 2.689 4.156 4.916 2.96a12.022 12.022 0 0 1 6.274-1.416c6.172.284 11.252 5.388 11.537 11.59.32 6.989-5.225 12.756-12.11 12.756a12.02 12.02 0 0 1-5.642-1.398C8.716 61.637 6 63.198 6 65.764v12.72c0 4.48 3.639 8.109 8.128 8.109h52.3c4.49 0 8.129-3.63 8.129-8.108v-51.89c0-4.478-3.64-8.109-8.129-8.108" style="mix-blend-mode:multiply"/><path stroke="#FFF" stroke-linecap="round" stroke-linejoin="round" stroke-width="2.4" d="M40.444 38.192v16.8m.233 9.648h-.04a.4.4 0 0 1-.398-.4v-.04a.4.4 0 0 1 .398-.4h.04a.4.4 0 0 1 .398.4v.04a.4.4 0 0 1-.398.4z"/><path fill="#00C6FF" d="M89.685 52.052c0 7.098-5.727 12.852-12.792 12.852-7.064 0-12.792-5.754-12.792-12.852 0-7.098 5.728-12.852 12.792-12.852 7.065 0 12.792 5.754 12.792 12.852" style="mix-blend-mode:multiply"/></g></svg><svg width="98" height="98" viewBox="-4 -4 98 98" id="icon_feature_03" x="280" y="274" xmlns="http://www.w3.org/2000/svg"><g fill="none" fill-rule="evenodd"><path fill="#0AEA8E" d="M10.217 29.707v29.242c0 3.257 1.765 6.27 4.633 7.909L40.312 81.41a9.478 9.478 0 0 0 9.387 0l25.462-14.552c2.868-1.64 4.632-4.652 4.632-7.91v-29.24c0-3.258-1.764-6.27-4.632-7.909L49.7 7.247a9.478 9.478 0 0 0-9.387 0L14.85 21.798c-2.868 1.64-4.633 4.651-4.633 7.909" style="mix-blend-mode:multiply"/><path stroke="#FFF" stroke-linecap="round" stroke-linejoin="round" stroke-width="1.528" d="M19.099 29.049l51.813 30.557m0-30.557L19.099 59.606"/><path fill="#00C6FF" d="M86.011 24.261c0 3.37-2.784 6.102-6.217 6.102-3.434 0-6.218-2.732-6.218-6.102s2.784-6.101 6.218-6.101c3.433 0 6.217 2.732 6.217 6.101" style="mix-blend-mode:multiply"/><path fill="#0AEA8E" d="M86.011 64.213c0 3.37-2.784 6.102-6.217 6.102-3.434 0-6.218-2.732-6.218-6.102s2.784-6.102 6.218-6.102c3.433 0 6.217 2.732 6.217 6.102" style="mix-blend-mode:multiply"/><path fill="#00C6FF" d="M16.435 24.261c0 3.37-2.784 6.102-6.218 6.102C6.784 30.363 4 27.631 4 24.261s2.784-6.101 6.217-6.101c3.434 0 6.218 2.732 6.218 6.101" style="mix-blend-mode:multiply"/><path fill="#0AEA8E" d="M16.435 64.213c0 3.37-2.784 6.102-6.218 6.102C6.784 70.315 4 67.583 4 64.213s2.784-6.102 6.217-6.102c3.434 0 6.218 2.732 6.218 6.102M51.223 6.102c0 3.37-2.784 6.101-6.218 6.101-3.433 0-6.217-2.732-6.217-6.101 0-3.37 2.784-6.102 6.217-6.102 3.434 0 6.218 2.732 6.218 6.102" style="mix-blend-mode:multiply"/><path stroke="#FFF" stroke-linecap="round" stroke-linejoin="round" stroke-width="1.528" d="M45.005 15.272v58.111"/><path fill="#00C6FF" d="M51.223 83.1c0 3.37-2.784 6.1-6.218 6.1-3.433 0-6.217-2.73-6.217-6.1 0-3.37 2.784-6.103 6.217-6.103 3.434 0 6.218 2.732 6.218 6.102" style="mix-blend-mode:multiply"/></g></svg><svg width="98" height="97" viewBox="-4 -4 98 97" id="icon_feature_04" y="177" xmlns="http://www.w3.org/2000/svg"><g fill="none" fill-rule="evenodd"><path fill="#0AEA8E" d="M78.877 34.919c0-17.66-14.105-32.07-31.821-32.9a32.555 32.555 0 0 0-3.235 0C26.105 2.848 12 17.258 12 34.918c0 11.117 5.592 20.944 14.153 26.91 1.959 1.364 3.17 3.54 3.17 5.904V79.37c0 3.946 3.247 7.144 7.252 7.144h17.726c4.006 0 7.252-3.198 7.252-7.144V67.733c0-2.364 1.212-4.54 3.17-5.905 8.563-5.965 14.154-15.792 14.154-26.91" style="mix-blend-mode:multiply"/><path stroke="#FFF" stroke-linecap="round" stroke-linejoin="round" stroke-width="2.318" d="M45.438 27.607c9.82 0 17.781 3.443 17.781 7.69s-7.96 7.69-17.78 7.69c-9.821 0-17.781-3.443-17.781-7.69s7.96-7.69 17.78-7.69z"/><path stroke="#FFF" stroke-linecap="round" stroke-linejoin="round" stroke-width="2.318" d="M45.438 37.434c9.82 0 17.781 3.443 17.781 7.69s-7.96 7.69-17.78 7.69c-9.821 0-17.781-3.443-17.781-7.69s7.96-7.69 17.78-7.69zm0-19.654c9.82 0 17.781 3.444 17.781 7.69 0 4.248-7.96 7.69-17.78 7.69-9.821 0-17.781-3.442-17.781-7.69 0-4.246 7.96-7.69 17.78-7.69z"/><path fill="#00C6FF" d="M63.412 70.776H27.078c-1.495 0-2.706-1.194-2.706-2.666 0-1.473 1.211-2.666 2.706-2.666h36.334c1.495 0 2.706 1.193 2.706 2.666 0 1.472-1.211 2.666-2.706 2.666m0 9.9H27.078c-1.495 0-2.706-1.193-2.706-2.665 0-1.473 1.211-2.666 2.706-2.666h36.334c1.495 0 2.706 1.193 2.706 2.666 0 1.472-1.211 2.665-2.706 2.665" style="mix-blend-mode:multiply"/></g></svg><svg width="41" height="26" viewBox="-4 -4 41 26" fill="none" id="icon_footer_line" x="371" y="87" xmlns="http://www.w3.org/2000/svg"><path d="M12.2 4.426h-1.7c-.116 0-.217.02-.286.088-.07.07-.089.17-.089.286v9.15c0 .117.02.223.084.3.067.081.168.114.291.114h1.7c.124 0 .218-.033.271-.123a.356.356 0 0 0 .042-.134c.007-.048.008-.1.008-.157V4.8a1.06 1.06 0 0 0-.008-.151.282.282 0 0 0-.046-.125c-.057-.08-.153-.098-.267-.098zm-4 7.542H4.222V4.7a.76.76 0 0 0-.01-.14.155.155 0 0 0-.065-.105.219.219 0 0 0-.112-.029H2.057a.315.315 0 0 0-.121.023.17.17 0 0 0-.09.1.44.44 0 0 0-.02.151v9.22c0 .117.02.229.08.312.065.088.165.132.294.132h6c.064 0 .12-.01.166-.035a.238.238 0 0 0 .104-.108.708.708 0 0 0 .043-.301v-1.476a.815.815 0 0 0-.042-.313.26.26 0 0 0-.1-.12.317.317 0 0 0-.17-.043zM31 6.653a.852.852 0 0 0 .144-.009.196.196 0 0 0 .113-.055.208.208 0 0 0 .05-.115c.005-.04.006-.089.006-.144V4.75c0-.123-.033-.218-.122-.272-.077-.046-.183-.052-.291-.052H25c-.116 0-.217.02-.286.088-.07.07-.089.17-.089.286v9.18c0 .116.02.218.088.29.068.072.17.094.287.094h5.9a.483.483 0 0 0 .299-.077c.081-.064.114-.164.114-.287v-1.5c0-.055 0-.104-.006-.145a.22.22 0 0 0-.048-.116.197.197 0 0 0-.113-.06.751.751 0 0 0-.146-.011h-3.979v-1.741H31c.118 0 .213-.026.266-.112a.32.32 0 0 0 .04-.13c.006-.045.007-.096.007-.152V8.69c0-.055 0-.103-.007-.141a.183.183 0 0 0-.053-.112.197.197 0 0 0-.113-.045 1.233 1.233 0 0 0-.14-.005h-3.979V6.653H31zm-10.254 7.711H22.4c.127 0 .225-.04.287-.128a.532.532 0 0 0 .072-.306V4.8c0-.123-.032-.223-.111-.29-.077-.064-.182-.083-.298-.083H20.8a.51.51 0 0 0-.309.08c-.086.065-.128.165-.128.293v5.068l-3.702-5.211-.025-.036c-.016-.023-.03-.044-.044-.061a.384.384 0 0 0-.07-.076c-.06-.046-.128-.057-.222-.057h-1.7c-.116 0-.217.019-.286.087-.07.07-.09.17-.09.286v9.16c0 .117.02.222.086.297.067.078.168.107.29.107h1.65c.121 0 .222-.03.288-.108.064-.075.083-.18.083-.296V8.696l3.804 5.438a.586.586 0 0 0 .063.076.59.59 0 0 0 .092.095.29.29 0 0 0 .165.06z" fill="#797979" stroke="#797979" stroke-width=".15"/></svg><svg width="168" height="32" viewBox="-4 -4 168 32" fill="none" id="icon_footer_logo" y="87" xmlns="http://www.w3.org/2000/svg"><path fill-rule="evenodd" clip-rule="evenodd" d="M115.084 15.71l-.055.067c-.053.064-.106.129-.162.19a6.174 6.174 0 0 1-4.522 1.981 6.133 6.133 0 0 1-4.748-2.232 6.041 6.041 0 0 1-1.383-3.838 6.04 6.04 0 0 1 1.383-3.838 6.134 6.134 0 0 1 4.748-2.233c1.545 0 3.024.577 4.165 1.625.185.17.368.365.574.615a5.944 5.944 0 0 1 1.392 3.83 5.95 5.95 0 0 1-1.392 3.832zm3.192-11.356A10.947 10.947 0 0 0 110.345 1a11 11 0 0 0-8.511 3.998 10.835 10.835 0 0 0-2.477 6.88 10.822 10.822 0 0 0 2.478 6.88 10.997 10.997 0 0 0 8.51 3.998c3.253 0 6.321-1.417 8.416-3.887l.09-.115a10.832 10.832 0 0 0 2.482-6.876c0-2.498-.881-4.94-2.481-6.877a11.01 11.01 0 0 0-.576-.647zm8.39-2.697h-.03l-.006-.016h-5.092l7.934 20.474h4.474l.007-.016h.018l7.921-20.442h-.018l.006-.016h-5.092l-5.064 13.068-5.058-13.052zm-76.1 9.695c.354 0 .785-.089 1.008-.268.223-.179.327-.418.327-.72 0-.316-.098-.566-.312-.75-.213-.183-.653-.274-1.04-.274h-.804v2.012h.821zm5.122-1.105c0 1.567-.876 2.541-2.235 2.918l3.092 3.823H52.15l-2.284-3.192v3.192H46.04V6.768h4.78c2.767 0 4.867.847 4.867 3.479zm-47.44 1.799V7H12v10H8.236l-3.483-5.045V17H1V7h3.766l3.482 5.046zM36.72 6.768h7.754v2.661h-3.966v1.204h3.654v2.511h-3.654v1.181h4.087v2.663H36.72V6.768zm-17.568 3.384l-.9 3.372h1.906l-.901-3.372h-.105zM17.022 7h4.364l4.024 10.22h-4.254l-.372-1.334h-3.158l-.371 1.334H13L17.023 7zm14.707-.232l-1.885 6.163h-.106l-1.884-6.163h-4.172l4.303 10.22h3.611L35.9 6.769h-4.17zm58.654-5.111h-4.745v20.442H98.4v-4.697h-8.016V1.657zm59.26 5.96l-2.342 6.665h4.684l-2.342-6.664zm5.073 14.482l.006.016h5.092L151.88 1.641h-4.474l-7.934 20.474h5.092l.006-.016h.002l1.302-3.583h7.538l1.302 3.583h.002zm-75.327-6.38l3.763 3.049-.085.1a11.013 11.013 0 0 1-8.417 3.888c-6.059 0-10.988-4.88-10.988-10.878C63.662 5.879 68.592 1 74.65 1c3.253 0 6.321 1.417 8.417 3.888l.085.1-3.764 3.05a6.171 6.171 0 0 0-4.738-2.231c-3.38 0-6.131 2.724-6.131 6.071 0 3.347 2.75 6.07 6.131 6.07 1.711 0 3.36-.722 4.522-1.98l.076-.083.09-.105.051-.062z" fill="#797979"/></svg><svg width="58" height="26" viewBox="-4 -4 58 26" fill="none" id="icon_footer_naver" x="336" y="44" xmlns="http://www.w3.org/2000/svg"><path fill-rule="evenodd" clip-rule="evenodd" d="M7.382 5v4.443L4.316 5H1v8.805h3.304V9.363l3.067 4.442h3.315V5H7.382zm38.15 3.8c-.196.158-.575.236-.887.236h-.723V7.265h.709c.34 0 .727.08.915.241.188.162.275.382.275.661a.764.764 0 0 1-.288.633zm1.654 1.833c1.197-.332 1.968-1.19 1.968-2.57 0-2.317-1.85-3.063-4.286-3.063H40.66v9h3.367v-2.811l2.011 2.81h3.87l-2.722-3.366zM32.451 5h6.828v2.343h-3.492v1.06h3.217v2.211h-3.217v1.04h3.599V14H32.45V5zm-16.057 5.744l.792-2.969h.092l.794 2.97h-1.678zM19.154 5h-3.842l-3.542 9h3.746l.327-1.176h2.78L18.952 14h3.745l-3.544-9zm8.903 0l-1.66 5.427h-.093L24.644 5h-3.673l3.789 9h3.18l3.789-9h-3.672z" fill="#797979"/></svg><svg width="18" height="18" viewBox="-4 -4 18 18" fill="none" id="icon_info_from" x="302" y="119" xmlns="http://www.w3.org/2000/svg"><path fill-rule="evenodd" clip-rule="evenodd" d="M5 8.857a3.857 3.857 0 1 0 0-7.714 3.857 3.857 0 0 0 0 7.714zM9.5 5a4.5 4.5 0 1 1-9 0 4.5 4.5 0 0 1 9 0z" fill="#949494"/><path d="M5.006 3.56a.489.489 0 1 0 0-.977.489.489 0 0 0 0 .977zm.315.636H4.68V7.09h.642V4.196z" fill="#949494"/></svg><svg width="28" height="28" viewBox="-4 -4 28 28" id="icon_info_notice" x="378" y="274" xmlns="http://www.w3.org/2000/svg"><path d="M10 0c5.523 0 10 4.477 10 10s-4.477 10-10 10S0 15.523 0 10 4.477 0 10 0zm0 13a1 1 0 1 0 0 2 1 1 0 0 0 0-2zm0-9a1 1 0 0 0-1 1v6a1 1 0 0 0 2 0V5a1 1 0 0 0-1-1z" fill="#FFF" fill-rule="evenodd" opacity=".6"/></svg><svg width="32" height="32" viewBox="-4 -4 32 32" fill="none" id="icon_instagram" x="278" y="225" xmlns="http://www.w3.org/2000/svg"><path fill-rule="evenodd" clip-rule="evenodd" d="M11.843 16.072a3.314 3.314 0 1 1 0-6.63 3.316 3.316 0 1 1 0 6.63zm.077-8.186a4.751 4.751 0 0 0-4.75 4.753 4.751 4.751 0 1 0 9.504 0 4.754 4.754 0 0 0-4.754-4.753zm4.911-1.289a1.108 1.108 0 1 0 0 2.216 1.108 1.108 0 0 0 0-2.216z" fill="#797979"/><mask id="aza" fill="#fff"><path fill-rule="evenodd" clip-rule="evenodd" d="M15.986 2.977H7.857a5.55 5.55 0 0 0-5.55 5.55v8.13a5.548 5.548 0 0 0 5.55 5.55h8.13a5.55 5.55 0 0 0 5.55-5.55v-8.13a5.55 5.55 0 0 0-5.55-5.55z"/></mask><path d="M15.986 1.497H7.857v2.96h8.13v-2.96zm-8.129 0a7.03 7.03 0 0 0-7.03 7.03h2.96a4.07 4.07 0 0 1 4.07-4.07v-2.96zm-7.03 7.03v8.13h2.96v-8.13H.826zm0 8.13a7.028 7.028 0 0 0 7.03 7.03v-2.959c-2.25 0-4.07-1.82-4.07-4.07H.826zm7.03 7.03h8.13v-2.959h-8.13v2.96zm8.13 0a7.029 7.029 0 0 0 7.03-7.03h-2.959a4.07 4.07 0 0 1-4.072 4.071v2.96zm7.03-7.03v-8.13h-2.959v8.13h2.96zm0-8.13a7.03 7.03 0 0 0-7.03-7.03v2.96a4.07 4.07 0 0 1 4.071 4.07h2.96z" fill="#797979" mask="url(#aza)"/></svg><svg width="32" height="32" viewBox="-4 -4 32 32" fill="none" id="icon_instagram_hover" x="310" y="225" xmlns="http://www.w3.org/2000/svg"><path fill-rule="evenodd" clip-rule="evenodd" d="M11.843 16.072a3.314 3.314 0 1 1 0-6.63 3.316 3.316 0 1 1 0 6.63m.077-8.186a4.751 4.751 0 0 0-4.75 4.753 4.751 4.751 0 1 0 9.504 0 4.754 4.754 0 0 0-4.754-4.753m4.911-1.289a1.108 1.108 0 1 0 0 2.216 1.108 1.108 0 0 0 0-2.216" fill="#D9D9D9"/><mask id="baa" fill="#fff"><path fill-rule="evenodd" clip-rule="evenodd" d="M15.986 2.977H7.857a5.55 5.55 0 0 0-5.55 5.55v8.13a5.548 5.548 0 0 0 5.55 5.55h8.13a5.55 5.55 0 0 0 5.55-5.55v-8.13a5.55 5.55 0 0 0-5.55-5.55z"/></mask><path d="M15.986 1.497H7.857v2.96h8.13v-2.96zm-8.129 0a7.03 7.03 0 0 0-7.03 7.03h2.96a4.07 4.07 0 0 1 4.07-4.07v-2.96zm-7.03 7.03v8.13h2.96v-8.13H.826zm0 8.13a7.028 7.028 0 0 0 7.03 7.03v-2.959c-2.25 0-4.07-1.82-4.07-4.07H.826zm7.03 7.03h8.13v-2.959h-8.13v2.96zm8.13 0a7.029 7.029 0 0 0 7.03-7.03h-2.959a4.07 4.07 0 0 1-4.072 4.071v2.96zm7.03-7.03v-8.13h-2.959v8.13h2.96zm0-8.13a7.03 7.03 0 0 0-7.03-7.03v2.96a4.07 4.07 0 0 1 4.071 4.07h2.96z" fill="#D9D9D9" mask="url(#baa)"/></svg><svg width="153" height="30" viewBox="-4 -4 153 30" id="icon_logo" x="168" y="87" xmlns="http://www.w3.org/2000/svg"><path fill-rule="evenodd" d="M99.788 1a9.98 9.98 0 0 1 7.777 3.678A9.984 9.984 0 0 1 109.833 11c0 2.294-.806 4.54-2.269 6.321 0 0-.065.086-.082.105A10.044 10.044 0 0 1 99.788 21a10.031 10.031 0 0 1-8.65-4.917A9.984 9.984 0 0 1 89.742 11c0-2.3.804-4.546 2.265-6.325A10.034 10.034 0 0 1 99.787 1zM67.154 1c2.974 0 5.779 1.303 7.694 3.574l.078.092-3.44 2.805a5.628 5.628 0 0 0-4.332-2.051c-3.091 0-5.606 2.503-5.606 5.58s2.515 5.58 5.606 5.58c1.564 0 3.07-.663 4.133-1.82l.07-.076.083-.097.046-.056 3.44 2.803-.078.092A10.044 10.044 0 0 1 67.154 21c-5.54 0-10.046-4.486-10.046-10S61.615 1 67.154 1zm47.555.604l4.636 12.03 4.637-12.03h4.648l-7.242 18.792h-4.085l-7.242-18.792h4.648zm-33.172 0v14.474h7.329v4.318H77.199V1.604h4.338zm56.22 0L145 20.396h-4.648l-1.194-3.304h-6.885l-1.193 3.304h-4.648l7.241-18.792h4.085zM99.788 5.42A5.594 5.594 0 0 0 94.183 11c0 1.283.45 2.536 1.265 3.528a5.591 5.591 0 0 0 4.34 2.052 5.627 5.627 0 0 0 4.134-1.82c.052-.057.1-.116.149-.176l.05-.062A5.486 5.486 0 0 0 105.394 11c0-1.292-.44-2.51-1.273-3.521a5.336 5.336 0 0 0-.525-.566 5.595 5.595 0 0 0-3.807-1.493zM3.51 6.303l3.246 4.74v-4.74h3.496v9.395H6.743l-3.246-4.74v4.74H0V6.303h3.51zm36.057 0v2.446H35.94v1.106h3.34v2.31h-3.34v1.085h3.736v2.448h-7.2V6.302h7.09zm-15.195 0l1.723 5.665h.096l1.724-5.666h3.813l-3.935 9.396h-3.3l-3.936-9.396h3.815zm20.996 0c2.53 0 4.45.778 4.45 3.198 0 1.372-.725 2.25-1.868 2.629l-.174.053 2.827 3.515h-4.02l-2.087-2.934v2.934H41V6.302h4.368zm-26.7 0l3.68 9.395h-3.89l-.34-1.227H15.23l-.34 1.227h-3.889l3.678-9.396h3.989zm117.049.78l-2.142 6.127h4.283l-2.141-6.126zM16.722 9.2h-.096l-.823 3.1h1.742l-.823-3.1zm28.398-.533h-.736v1.85h.75c.325 0 .718-.082.922-.247.204-.164.3-.384.3-.661 0-.291-.09-.521-.286-.69-.195-.168-.597-.252-.95-.252z"/></svg><svg width="153" height="30" viewBox="-4 -4 153 30" id="icon_logo_main" y="119" xmlns="http://www.w3.org/2000/svg"><path fill="#FFF" fill-rule="evenodd" d="M99.788 1a9.98 9.98 0 0 1 7.777 3.678A9.984 9.984 0 0 1 109.833 11c0 2.294-.806 4.54-2.269 6.321 0 0-.065.086-.082.105A10.044 10.044 0 0 1 99.788 21a10.031 10.031 0 0 1-8.65-4.917A9.984 9.984 0 0 1 89.742 11c0-2.3.804-4.546 2.265-6.325A10.034 10.034 0 0 1 99.787 1zM67.154 1c2.974 0 5.779 1.303 7.694 3.574l.078.092-3.44 2.805a5.628 5.628 0 0 0-4.332-2.051c-3.091 0-5.606 2.503-5.606 5.58s2.515 5.58 5.606 5.58c1.564 0 3.07-.663 4.133-1.82l.07-.076.083-.097.046-.056 3.44 2.803-.078.092A10.044 10.044 0 0 1 67.154 21c-5.54 0-10.046-4.486-10.046-10S61.615 1 67.154 1zm47.555.604l4.636 12.03 4.637-12.03h4.648l-7.242 18.792h-4.085l-7.242-18.792h4.648zm-33.172 0v14.474h7.329v4.318H77.199V1.604h4.338zm56.22 0L145 20.396h-4.648l-1.194-3.304h-6.885l-1.193 3.304h-4.648l7.241-18.792h4.085zM99.788 5.42A5.594 5.594 0 0 0 94.183 11c0 1.283.45 2.536 1.265 3.528a5.591 5.591 0 0 0 4.34 2.052 5.627 5.627 0 0 0 4.134-1.82c.052-.057.1-.116.149-.176l.05-.062A5.486 5.486 0 0 0 105.394 11c0-1.292-.44-2.51-1.273-3.521a5.336 5.336 0 0 0-.525-.566 5.595 5.595 0 0 0-3.807-1.493zM3.51 6.303l3.246 4.74v-4.74h3.496v9.395H6.743l-3.246-4.74v4.74H0V6.303h3.51zm36.057 0v2.446H35.94v1.106h3.34v2.31h-3.34v1.085h3.736v2.448h-7.2V6.302h7.09zm-15.195 0l1.723 5.665h.096l1.724-5.666h3.813l-3.935 9.396h-3.3l-3.936-9.396h3.815zm20.996 0c2.53 0 4.45.778 4.45 3.198 0 1.372-.725 2.25-1.868 2.629l-.174.053 2.827 3.515h-4.02l-2.087-2.934v2.934H41V6.302h4.368zm-26.7 0l3.68 9.395h-3.89l-.34-1.227H15.23l-.34 1.227h-3.889l3.678-9.396h3.989zm117.049.78l-2.142 6.127h4.283l-2.141-6.126zM16.722 9.2h-.096l-.823 3.1h1.742l-.823-3.1zm28.398-.533h-.736v1.85h.75c.325 0 .718-.082.922-.247.204-.164.3-.384.3-.661 0-.291-.09-.521-.286-.69-.195-.168-.597-.252-.95-.252z"/></svg><svg width="16" height="22" viewBox="-4 -4 16 22" fill="none" id="icon_main_banner_link_arrow" x="286" y="119" xmlns="http://www.w3.org/2000/svg"><path d="M1 1l6 6-6 6" stroke="#fff" stroke-width="1.2"/></svg><svg width="50" height="26" viewBox="-4 -4 50 26" id="icon_new" x="321" y="87" xmlns="http://www.w3.org/2000/svg"><g fill="none" fill-rule="evenodd"><rect width="42" height="18" fill="#FA615B" rx="9"/><text fill="#FFF" font-family="CircularStd-Bold, Circular Std" font-size="11" font-weight="bold" letter-spacing="-.244"><tspan x="9" y="13">NEW</tspan></text></g></svg><svg width="32" height="32" viewBox="-4 -4 32 32" fill="none" id="icon_send_off" x="214" y="225" xmlns="http://www.w3.org/2000/svg"><path d="M21.667 11.4L3 1.4c-.267-.133-.533-.067-.733.067-.2.133-.334.4-.267.666l2 9.2h8c.4 0 .667.267.667.667s-.267.667-.667.667H4l-2 9.2a.634.634 0 0 0 .267.666c.133.067.266.134.4.134.133 0 .2 0 .333-.067l18.667-10A.7.7 0 0 0 22 12a.7.7 0 0 0-.333-.6z" fill="#DFDFDF"/></svg><svg width="32" height="32" viewBox="-4 -4 32 32" fill="none" id="icon_send_on" x="316" y="177" xmlns="http://www.w3.org/2000/svg"><path d="M21.667 11.4L3 1.4c-.267-.133-.533-.067-.733.067-.2.133-.334.4-.267.666l2 9.2h8c.4 0 .667.267.667.667s-.267.667-.667.667H4l-2 9.2a.634.634 0 0 0 .267.666c.133.067.266.134.4.134.133 0 .2 0 .333-.067l18.667-10A.7.7 0 0 0 22 12a.7.7 0 0 0-.333-.6z" fill="#2284F5"/></svg><svg width="84" height="98" viewBox="-4 -4 84 98" id="icon_special_01" y="274" xmlns="http://www.w3.org/2000/svg"><g fill="none" fill-rule="evenodd"><path fill="#0AEA8E" d="M75.318 44.749c0 20.765-16.834 37.598-37.599 37.598C16.954 82.347.12 65.514.12 44.75c0-20.766 16.834-37.6 37.6-37.6 20.764 0 37.598 16.834 37.598 37.6"/><path stroke="#FFF" stroke-linecap="round" stroke-linejoin="round" stroke-width="2.515" d="M20.408 34.74v20.017l17.311 10.008 17.312-10.008V34.74L37.719 24.732zm17.311-20.179v3.017"/><path stroke="#FFF" stroke-dasharray="4.705859825625057,4.705859825625057" stroke-linecap="round" stroke-linejoin="round" stroke-width="2.515" d="M37.719 22.284v16.47"/><path stroke="#FFF" stroke-linecap="round" stroke-linejoin="round" stroke-width="2.515" d="M37.719 41.107v3.017m0 0l-2.542 1.626"/><path stroke="#FFF" stroke-dasharray="5.00057301883809,5.00057301883809" stroke-linecap="round" stroke-linejoin="round" stroke-width="2.515" d="M30.963 48.443L16.216 57.87"/><path stroke="#FFF" stroke-linecap="round" stroke-linejoin="round" stroke-width="2.515" d="M14.11 59.217l-2.543 1.625m26.152-16.718l2.528 1.648"/><path stroke="#FFF" stroke-dasharray="4.916081679494757,4.916081679494757" stroke-linecap="round" stroke-linejoin="round" stroke-width="2.515" d="M44.366 48.457l14.415 9.395"/><path stroke="#FFF" stroke-linecap="round" stroke-linejoin="round" stroke-width="2.515" d="M60.841 59.194l2.527 1.648"/><path fill="#00C7FF" d="M43 7.28a5.03 5.03 0 1 1-10.058 0A5.03 5.03 0 0 1 43 7.28" style="mix-blend-mode:multiply"/><path fill="#0AEA8E" d="M43 82.72a5.03 5.03 0 1 1-10.059-.001 5.03 5.03 0 0 1 10.059 0" style="mix-blend-mode:multiply"/><path fill="#00C7FF" d="M10.31 65.117a5.03 5.03 0 1 1-10.059 0 5.03 5.03 0 0 1 10.059 0" style="mix-blend-mode:multiply"/><path fill="#0AEA8E" d="M74.684 25.889a5.03 5.03 0 1 1-10.058 0 5.03 5.03 0 0 1 10.058 0m-64.374 0a5.03 5.03 0 1 1-10.058 0 5.03 5.03 0 0 1 10.058 0" style="mix-blend-mode:multiply"/><path fill="#00C7FF" d="M75.187 65.117a5.03 5.03 0 1 1-10.059 0 5.03 5.03 0 0 1 10.06 0" style="mix-blend-mode:multiply"/></g></svg><svg width="84" height="97" viewBox="-4 -4 84 97" id="icon_special_02" x="98" y="177" xmlns="http://www.w3.org/2000/svg"><g fill="none" fill-rule="evenodd"><path fill="#0AEA8E" d="M76.05 44.8c0 20.888-16.932 37.82-37.82 37.82C17.345 82.62.41 65.688.41 44.8c0-20.887 16.934-37.82 37.82-37.82 20.888 0 37.82 16.933 37.82 37.82"/><path fill="#00C7FF" d="M43.29 7.059a5.059 5.059 0 1 1-10.118 0 5.059 5.059 0 0 1 10.118 0" style="mix-blend-mode:multiply"/><path fill="#0AEA8E" d="M43.29 82.941a5.059 5.059 0 1 1-10.119 0 5.059 5.059 0 0 1 10.119 0" style="mix-blend-mode:multiply"/><path stroke="#FFF" stroke-linecap="round" stroke-linejoin="round" stroke-width="2.529" d="M54.393 62.8H22.069a1.838 1.838 0 0 1-1.838-1.837V28.639c0-1.015.823-1.838 1.838-1.838h32.324c1.015 0 1.838.823 1.838 1.838v32.324a1.838 1.838 0 0 1-1.838 1.838z"/><path fill="#00C7FF" d="M10.37 64.73a5.06 5.06 0 1 1-10.118-.002 5.06 5.06 0 0 1 10.119.001" style="mix-blend-mode:multiply"/><path fill="#0AEA8E" d="M10.37 25.27a5.059 5.059 0 1 1-10.117 0 5.059 5.059 0 0 1 10.118 0m65.259 0a5.059 5.059 0 1 1-10.119 0 5.059 5.059 0 0 1 10.118 0" style="mix-blend-mode:multiply"/><path fill="#00C7FF" d="M75.63 64.73a5.06 5.06 0 1 1-10.12-.002 5.06 5.06 0 0 1 10.12.001" style="mix-blend-mode:multiply"/><path stroke="#FFF" stroke-linecap="round" stroke-linejoin="round" stroke-width="2.381" d="M35.68 53.682a4.5 4.5 0 0 1-6.362 0 4.474 4.474 0 0 1-1.316-3.18 4.47 4.47 0 0 1 1.317-3.182l1.594-1.596a1.097 1.097 0 0 0-.007-1.458l-1.588-1.586A4.473 4.473 0 0 1 28 39.498a4.47 4.47 0 0 1 1.32-3.183A4.457 4.457 0 0 1 32.499 35a4.48 4.48 0 0 1 3.182 1.315l1.583 1.582c.417.38 1.048.384 1.469.01l1.589-1.59A4.453 4.453 0 0 1 43.502 35c1.2 0 2.331.468 3.181 1.318A4.462 4.462 0 0 1 48 39.498c0 1.2-.467 2.332-1.317 3.182l-1.588 1.586a1.095 1.095 0 0 0 .004 1.468l1.584 1.586A4.464 4.464 0 0 1 48 50.502a4.463 4.463 0 0 1-1.317 3.18A4.471 4.471 0 0 1 43.502 55a4.459 4.459 0 0 1-3.181-1.318l-1.59-1.588a1.095 1.095 0 0 0-1.462 0l-1.59 1.588z"/><path stroke="#FFF" stroke-linecap="round" stroke-linejoin="round" stroke-width="2.529" d="M19.025 33.109h-5m5 23.782h-5m5-11.891h-5m43.201-11.891h5m-5 23.782h5m-5-11.891h5M26.341 25.52v-5m23.78 5v-5m-11.89 5v-5m-11.89 43.202v5m23.78-5v5m-11.89-5v5"/></g></svg><svg width="23" height="23" viewBox="-4 -4 23 23" fill="none" id="icon_step_next" x="394" y="44" xmlns="http://www.w3.org/2000/svg"><path fill-rule="evenodd" clip-rule="evenodd" d="M11.484 7L6.458 2 6 2.456 10.567 7 6 11.544l.458.456 5.026-5z" fill="#2284F5" stroke="#2284F5" stroke-width=".5"/></svg><svg width="23" height="23" viewBox="-4 -4 23 23" fill="none" id="icon_step_next_disabled" x="259" y="149" xmlns="http://www.w3.org/2000/svg"><path fill-rule="evenodd" clip-rule="evenodd" d="M11.484 7L6.458 2 6 2.456 10.567 7 6 11.544l.458.456 5.026-5z" fill="#DFDFDF" stroke="#DFDFDF" stroke-width=".5"/></svg><svg width="23" height="23" viewBox="-4 -4 23 23" fill="none" id="icon_step_prev" x="282" y="149" xmlns="http://www.w3.org/2000/svg"><path fill-rule="evenodd" clip-rule="evenodd" d="M3.516 7l5.026-5L9 2.456 4.433 7 9 11.544 8.542 12 3.516 7z" fill="#2284F5" stroke="#2284F5" stroke-width=".5"/></svg><svg width="23" height="23" viewBox="-4 -4 23 23" fill="none" id="icon_step_prev_disabled" x="305" y="149" xmlns="http://www.w3.org/2000/svg"><path fill-rule="evenodd" clip-rule="evenodd" d="M3.516 7l5.026-5L9 2.456 4.433 7 9 11.544 8.542 12 3.516 7z" fill="#DFDFDF" stroke="#DFDFDF" stroke-width=".5"/></svg><svg width="26" height="26" viewBox="-4 -4 26 26" fill="none" id="icon_viewer_close_white" x="233" y="149" xmlns="http://www.w3.org/2000/svg"><mask id="bna" style="mask-type:alpha" maskUnits="userSpaceOnUse" x="0" y="0" width="18" height="18"><path fill="#fff" d="M0 0h18v18H0z"/></mask><g mask="url(#bna)" stroke="#fff" stroke-width="1.5" stroke-linecap="round"><path d="M14.96 3.338L3.187 15.112m11.773 0L3.188 3.338"/></g></svg><svg width="32" height="32" viewBox="-4 -4 32 32" fill="none" id="icon_youtube" x="374" y="225" xmlns="http://www.w3.org/2000/svg"><path fill-rule="evenodd" clip-rule="evenodd" d="M22.6 12.746c0 1.077-.18 3.9-.31 4.415-.39 1.532-1.116 2.124-2.457 2.336-.771.113-4.478.257-7.423.257l.014-.002c-2.944 0-6.653-.142-7.421-.255-1.34-.212-2.07-.804-2.456-2.336-.131-.516-.31-3.338-.31-4.415v-.238c0-1.075.179-3.9.31-4.412.386-1.533 1.116-2.127 2.456-2.34.768-.112 4.474-.256 7.413-.256 2.944 0 6.648.144 7.417.257 1.34.212 2.068.802 2.457 2.34.13.51.31 3.336.31 4.41v.24zm-11.7 2.458l4.883-2.636L10.9 10.05v5.153z" fill="#797979"/></svg><svg width="32" height="32" viewBox="-4 -4 32 32" fill="none" id="icon_youtube_hover" x="246" y="225" xmlns="http://www.w3.org/2000/svg"><path fill-rule="evenodd" clip-rule="evenodd" d="M22.6 12.746c0 1.077-.18 3.9-.31 4.415-.39 1.532-1.116 2.124-2.457 2.336-.771.113-4.478.257-7.423.257l.014-.002c-2.944 0-6.653-.142-7.421-.255-1.34-.212-2.07-.804-2.456-2.336-.131-.516-.31-3.338-.31-4.415v-.238c0-1.075.179-3.9.31-4.412.386-1.533 1.116-2.127 2.456-2.34.768-.112 4.474-.256 7.413-.256 2.944 0 6.648.144 7.417.257 1.34.212 2.068.802 2.457 2.34.13.51.31 3.336.31 4.41v.24zm-11.7 2.458l4.883-2.636L10.9 10.05v5.153z" fill="#D9D9D9"/></svg></svg>